<svg width="229" height="210" viewBox="0 0 229 210" fill="none" xmlns="http://www.w3.org/2000/svg">
<g filter="url(#filter0_d_10_30)">
<path fill-rule="evenodd" clip-rule="evenodd" d="M144.323 18.8101L142.326 18.7054C141.223 18.6476 140.277 19.4944 140.168 20.5936C139.914 23.1675 139.479 26.3134 139.427 26.6841C139.424 26.7107 139.42 26.7335 139.415 26.7599L137.422 37.7202L135.919 45.4067L134.422 52.2202L133.108 61.1231C133.093 61.2276 133.085 61.3331 133.089 61.4387C133.107 61.955 133.198 63.6339 133.646 65.0069C133.924 65.8579 134.888 66.1061 135.713 65.7587C151.372 59.1648 167.665 54.9 184.591 52.9643C188.919 52.4907 193.264 52.3847 197.625 52.6461C199.647 52.8735 201.072 53.9042 201.901 55.7384C201.942 55.8304 201.975 55.9273 201.999 56.0254C202.883 59.6388 201.986 62.6127 199.31 64.9469C199.089 65.1398 198.82 65.2699 198.536 65.3403C174.872 71.1916 152.007 79.2371 129.94 89.4766C129.713 89.5821 129.465 89.6452 129.215 89.6569C120.358 90.0725 114.876 86.0011 112.772 77.442C112.738 77.3067 112.72 77.1703 112.717 77.031C112.548 68.3416 114.891 51.936 114.922 51.7224C114.923 51.7157 114.921 51.7253 114.923 51.7186C114.953 51.5207 117.737 33.4267 119.738 22.3309C119.983 20.9713 118.814 19.7746 117.433 19.8272C111.345 20.0594 106.325 17.7648 102.374 12.9435C102.186 12.7139 102.054 12.4412 101.998 12.1498C101.438 9.24785 101.974 6.62879 103.603 4.29268C103.884 3.89027 104.327 3.63586 104.811 3.55448C128.489 -0.427845 152.21 -0.638222 175.976 2.92335C176.122 2.94529 176.267 2.9834 176.404 3.03906C180.292 4.61724 182.705 7.40982 183.643 11.417C183.712 11.7097 183.706 12.0166 183.615 12.3032C182.861 14.6899 181.16 15.9541 178.512 16.0957C167.137 17.3306 155.74 18.2354 144.323 18.8101ZM56.9687 152.217C56.8219 152.49 56.6044 152.716 56.3806 152.931C56.0395 153.258 55.8035 153.645 55.6727 154.094C55.4246 154.945 56.1906 155.674 57.0753 155.727C59.9596 155.898 63.8049 155.591 63.9928 155.576C63.9999 155.576 63.9945 155.576 64.0016 155.575C64.2313 155.559 88.4836 153.823 100.789 152.938C108.584 151.7 111.29 154.743 108.908 162.065C108.843 162.265 108.743 162.457 108.615 162.623C105.648 166.48 101.736 169.025 96.8777 170.257C77.3247 173.99 57.6556 174.965 37.8693 173.181C37.72 173.167 37.5706 173.137 37.4285 173.089C30.8531 170.867 27.9732 166.415 28.7888 159.735C28.833 159.373 28.9874 159.033 29.2189 158.752C38.9589 146.903 46.5463 133.764 51.9811 119.337C52.7399 116.363 52.9557 113.359 52.6285 110.327C52.5619 109.71 52.1924 109.161 51.6229 108.914C50.7334 108.529 49.7853 108.28 48.7784 108.165C48.6349 108.149 48.4899 108.152 48.3466 108.17C44.1152 108.707 39.965 109.645 35.8962 110.984C30.6125 111.948 26.9155 109.998 24.8049 105.137C24.7342 104.974 24.688 104.8 24.6669 104.624C24.2468 101.112 24.4282 97.6319 25.2111 94.1826C25.253 93.998 25.3229 93.8208 25.4164 93.6562C33.9467 78.6427 43.7178 64.5627 54.7297 51.4161C55.7646 50.1806 55.0083 48.2918 53.3995 48.1964C42.4806 47.5491 31.8439 49.2034 21.4896 53.1592C20.8032 53.4215 20.3256 54.0479 20.2408 54.7777C18.3296 71.2274 16.4941 87.6921 14.7343 104.172C14.7205 104.301 14.6934 104.432 14.6538 104.556C12.368 111.714 8.43683 112.873 2.86032 108.033C2.63669 107.839 2.46082 107.595 2.35537 107.318C-0.117176 100.83 0.0644054 88.0573 0.0719155 87.59C0.0721591 87.5748 0.0724442 87.5692 0.0730609 87.5541L1.49884 52.5287C1.49962 52.5096 1.49951 52.5071 1.50084 52.488C1.54316 51.8803 3.17641 28.4678 3.76394 26.6866C4.35921 24.882 5.58537 23.7779 7.44232 23.3745C14.3952 22.698 18.9985 25.3949 21.2521 31.4655C21.6728 32.5986 22.9216 33.2477 24.0568 32.8327C36.4175 28.3139 49.1351 27.1193 62.2099 29.2489C75.5465 32.3581 80.3359 40.3181 76.5782 53.1287C76.5017 53.3895 76.3682 53.6349 76.1928 53.8426C68.4018 63.0678 60.9767 72.5828 53.9175 82.3877C52.6104 84.2691 51.5742 86.2565 50.8087 88.3497C50.3212 89.6828 51.4891 90.9628 52.9062 90.8832C61.0199 90.4279 67.5968 93.4448 72.637 99.9338C72.8765 100.242 73.0135 100.619 73.0333 101.009C73.4536 109.304 72.3407 117.391 69.6947 125.272C65.9045 134.507 61.6625 143.489 56.9687 152.217ZM166.657 195.181C166.725 195.01 166.766 194.831 166.783 194.648C167.596 186.021 171.879 170.544 172.177 169.474C172.189 169.432 172.198 169.394 172.207 169.352L180.438 130.363C180.465 130.233 180.48 130.102 180.479 129.97C180.473 129.293 180.421 127.016 179.971 125.147C179.731 124.152 180.018 123.034 180.985 122.7C182.004 122.348 183.077 122.114 183.451 122.037C183.544 122.018 183.624 122.008 183.718 122.003C185.443 121.923 204.137 121.046 213.875 120.071C214.042 120.054 214.201 120.017 214.358 119.957C216.405 119.171 218.252 118.04 219.902 116.562C220.081 116.401 220.226 116.206 220.328 115.988C222.061 112.262 221.419 109.19 218.4 106.77C218.119 106.545 217.774 106.418 217.416 106.385C184.078 103.297 150.845 104.218 117.715 109.147C113.776 110.2 110.067 111.734 106.589 113.75C106.174 113.991 105.863 114.381 105.726 114.841C103.163 123.426 106.594 127.849 116.018 128.107C116.126 128.11 116.232 128.105 116.339 128.09C128.612 126.386 152.699 124.69 153.934 124.604C153.974 124.601 154.004 124.6 154.044 124.6L158.708 124.556C159.884 124.545 160.815 125.546 160.72 126.718L160.668 127.369C160.66 127.465 160.645 127.559 160.624 127.652L158.213 138.244C158.207 138.269 158.202 138.291 158.198 138.317C158.105 138.811 157.054 144.452 156.381 148.127C156.127 149.511 155.746 151.604 155.683 151.951C155.676 151.984 155.671 152.017 155.667 152.051L150.48 192.145C150.431 192.526 150.491 192.911 150.658 193.257C151.233 194.451 152.671 197.402 153.724 199.283C153.903 199.603 154.172 199.863 154.499 200.028C160.192 202.897 164.245 201.282 166.657 195.181Z" fill="url(#paint0_linear_10_30)"/>
</g>
<defs>
<filter id="filter0_d_10_30" x="0.0662842" y="0.401154" width="228.21" height="209.004" filterUnits="userSpaceOnUse" color-interpolation-filters="sRGB">
<feFlood flood-opacity="0" result="BackgroundImageFix"/>
<feColorMatrix in="SourceAlpha" type="matrix" values="0 0 0 0 0 0 0 0 0 0 0 0 0 0 0 0 0 0 127 0" result="hardAlpha"/>
<feOffset dx="6" dy="7"/>
<feGaussianBlur stdDeviation="0.5"/>
<feComposite in2="hardAlpha" operator="out"/>
<feColorMatrix type="matrix" values="0 0 0 0 0 0 0 0 0 0 0 0 0 0 0 0 0 0 1 0"/>
<feBlend mode="normal" in2="BackgroundImageFix" result="effect1_dropShadow_10_30"/>
<feBlend mode="normal" in="SourceGraphic" in2="effect1_dropShadow_10_30" result="shape"/>
</filter>
<linearGradient id="paint0_linear_10_30" x1="-5.85228e-06" y1="10" x2="248" y2="208" gradientUnits="userSpaceOnUse">
<stop stop-color="#5E008A"/>
<stop offset="1" stop-color="white"/>
</linearGradient>
</defs>
</svg>
