<svg width="102" height="78" viewBox="0 0 102 78" fill="none" xmlns="http://www.w3.org/2000/svg">
<path d="M27.7648 0.709564C28.8998 0.696805 30.0348 0.684045 31.2042 0.670898C33.0308 0.66756 33.0308 0.66756 34.8944 0.664154C36.7864 0.654169 36.7864 0.654169 38.7166 0.643982C41.3838 0.633862 44.0507 0.628299 46.7179 0.629486C50.1173 0.629689 53.5159 0.602413 56.9151 0.567942C60.179 0.540205 63.4429 0.54152 66.7069 0.539154C68.5245 0.517598 68.5245 0.517597 70.3787 0.495605C78.4647 0.53908 83.9898 1.48602 90.2421 6.96494C94.2295 11.7823 96.3306 15.5739 97.9999 21.6251C98.8452 25.0881 98.8452 25.0881 101 28.0001C101.312 30.5626 101.312 30.5626 101 33.0001C100.01 33.6601 99.0199 34.3201 97.9999 35.0001C97.2638 38.5678 97.2638 38.5678 96.9999 42.0001C98.4849 42.4951 98.4849 42.4951 99.9999 43.0001C101.563 46.1272 101.399 49.5799 101 53.0001C100.34 53.9901 99.6799 54.9801 98.9999 56.0001C98.3399 56.0001 97.6799 56.0001 96.9999 56.0001C97.0579 57.0971 97.1159 58.1941 97.1757 59.3243C97.2226 60.7787 97.2681 62.2331 97.3124 63.6876C97.3543 64.4088 97.3962 65.1301 97.4393 65.8731C97.4555 66.5789 97.4716 67.2847 97.4882 68.0118C97.5144 68.6559 97.5405 69.3001 97.5675 69.9637C96.6241 73.3483 94.6896 74.8114 91.9999 77.0001C89.1283 77.4954 86.8497 77.6862 83.9843 77.6471C83.1918 77.6558 82.3993 77.6646 81.5828 77.6736C78.9712 77.6956 76.3614 77.6811 73.7499 77.6642C71.9305 77.6675 70.1112 77.6724 68.2919 77.6786C64.4821 77.686 60.6729 77.6753 56.8632 77.6519C51.9836 77.6235 47.1054 77.6399 42.2259 77.6698C38.47 77.6879 34.7144 77.6821 30.9585 77.6692C29.1596 77.6658 27.3606 77.6699 25.5618 77.6816C23.0456 77.6943 20.5316 77.6749 18.0155 77.6471C17.2746 77.6572 16.5337 77.6673 15.7703 77.6777C11.8124 77.5968 10.146 77.119 7.03438 74.5869C5.0213 72.0273 4.38324 71.1695 4.5116 68.0118C4.52772 67.306 4.54383 66.6003 4.56043 65.8731C4.62327 64.7913 4.62327 64.7913 4.68738 63.6876C4.70994 62.947 4.7325 62.2065 4.75574 61.4435C4.8143 59.6281 4.90398 57.8138 4.99988 56.0001C4.00988 55.6701 3.01988 55.3401 1.99988 55.0001C0.43635 51.873 0.6003 48.4203 0.999884 45.0001C1.65988 44.0101 2.31988 43.0201 2.99988 42.0001C3.65988 42.0001 4.31988 42.0001 4.99988 42.0001C4.99988 39.3601 4.99988 36.7201 4.99988 34.0001C3.67988 33.6701 2.35988 33.3401 0.999884 33.0001C0.623172 28.4795 0.623172 28.4795 2.37488 26.2501C4.10822 23.8501 4.40588 22.4885 4.93738 19.6251C6.44379 12.2024 10.8716 7.22999 16.9999 3.00009C20.7161 1.25008 23.6704 0.740931 27.7648 0.709564ZM14.9999 11.0001C11.835 15.0585 9.99988 17.7611 9.99988 23.0001C37.0599 23.0001 64.1199 23.0001 91.9999 23.0001C90.988 16.9286 90.054 13.4225 85.1679 9.54697C78.1203 4.85758 71.3176 4.84225 63.0702 4.83212C62.121 4.82879 61.1719 4.82547 60.1939 4.82204C58.1919 4.81699 56.1899 4.81463 54.1879 4.81479C51.142 4.8126 48.0965 4.79443 45.0507 4.77548C43.0988 4.77255 41.147 4.77056 39.1952 4.76962C38.2929 4.76244 37.3905 4.75525 36.4609 4.74785C28.4627 4.77643 21.3306 5.65419 14.9999 11.0001ZM8.99988 27.0001C8.00988 28.4851 8.00988 28.4851 6.99988 30.0001C11.3006 30.9775 13.1549 30.9846 16.9999 29.0001C19.7827 29.2855 21.8467 29.9275 24.3749 31.1251C27.9123 32.3042 30.3887 31.788 33.9999 31.0001C34.7011 30.6288 35.4024 30.2576 36.1249 29.8751C38.7586 28.646 40.2594 29.178 42.9999 30.0001C43.598 30.3507 44.1961 30.7013 44.8124 31.0626C48.6955 32.7268 52.959 32.7644 56.8983 31.2892C57.4887 31.0081 58.0791 30.7271 58.6874 30.4376C62.2492 28.8919 63.4192 28.742 66.9999 30.0001C67.928 30.557 67.928 30.557 68.8749 31.1251C72.1216 32.462 74.6278 31.7227 77.9999 31.0001C79.0518 30.4432 79.0518 30.4432 80.1249 29.8751C82.7479 28.651 84.2341 29.2757 86.9999 30.0001C90.1083 30.727 90.1083 30.727 92.9999 31.0001C93.6599 30.3401 94.3199 29.6801 94.9999 29.0001C94.5049 28.0101 94.5049 28.0101 93.9999 27.0001C82.9518 26.9307 71.9039 26.8773 60.8556 26.8447C55.7259 26.829 50.5963 26.8077 45.4667 26.7738C40.5195 26.7413 35.5724 26.7233 30.6251 26.7155C28.7344 26.7099 26.8437 26.699 24.953 26.6829C22.3117 26.6612 19.671 26.6581 17.0297 26.6595C15.8482 26.6433 15.8482 26.6433 14.6429 26.6268C12.247 26.6051 12.247 26.6051 8.99988 27.0001ZM8.99988 36.0001C8.99988 37.6501 8.99988 39.3001 8.99988 41.0001C36.7199 41.0001 64.4399 41.0001 92.9999 41.0001C92.9999 39.3501 92.9999 37.7001 92.9999 36.0001C91.2747 35.6073 89.5444 35.2366 87.8124 34.8751C86.8495 34.6663 85.8865 34.4574 84.8944 34.2423C81.6124 33.9677 79.9591 34.6554 76.9999 36.0001C73.3914 36.2578 70.7955 36.33 67.4374 34.9376C64.27 33.7194 62.253 34.2049 58.9999 35.0001C58.3399 35.3301 57.6799 35.6601 56.9999 36.0001C55.0444 36.1227 53.0842 36.1756 51.1249 36.1876C50.0756 36.2018 49.0263 36.216 47.9452 36.2306C44.9999 36.0001 44.9999 36.0001 42.8749 34.9298C40.4313 33.7181 39.4391 34.1381 36.8749 34.9376C30.9173 36.4712 25.2883 35.8613 19.3749 34.3126C15.6573 33.8234 12.5844 34.9673 8.99988 36.0001ZM5.99988 47.0001C6.34433 49.4728 6.34433 49.4728 6.99988 52.0001C10.1269 53.5636 13.4575 53.1474 16.8903 53.1454C18.1124 53.1504 18.1124 53.1504 19.3593 53.1555C22.0611 53.1651 24.7629 53.167 27.4647 53.1681C29.338 53.1713 31.2112 53.1746 33.0845 53.1781C37.0145 53.1841 40.9446 53.186 44.8746 53.1854C49.9166 53.1853 54.9585 53.1989 60.0004 53.2162C63.8702 53.2273 67.74 53.2293 71.6098 53.2288C73.469 53.23 75.3282 53.2344 77.1874 53.2421C79.7851 53.2519 82.3824 53.2491 84.9801 53.243C86.1374 53.2514 86.1374 53.2514 87.3181 53.26C91.0914 53.2377 92.7795 53.147 95.9999 51.0001C95.6554 48.5274 95.6554 48.5274 94.9999 46.0001C91.8728 44.4366 88.5423 44.8528 85.1095 44.8548C84.2947 44.8515 83.48 44.8481 82.6405 44.8447C79.9387 44.8351 77.2369 44.8332 74.535 44.8321C72.6618 44.8289 70.7885 44.8255 68.9153 44.822C64.9852 44.816 61.0552 44.8142 57.1251 44.8148C52.0832 44.8149 47.0413 44.8012 41.9994 44.784C38.1296 44.7729 34.2598 44.7709 30.3899 44.7714C28.5307 44.7702 26.6716 44.7658 24.8124 44.7581C22.2147 44.7483 19.6173 44.7511 17.0197 44.7572C16.2481 44.7516 15.4766 44.7459 14.6817 44.7401C10.9084 44.7625 9.22025 44.8532 5.99988 47.0001ZM8.99988 57.0001C8.35064 65.7182 8.35064 65.7182 11.9999 72.0001C15.4737 73.158 18.2046 73.1413 21.8705 73.1612C22.9125 73.1687 22.9125 73.1687 23.9755 73.1763C26.2727 73.1909 28.5698 73.1977 30.8671 73.2032C32.4651 73.209 34.0631 73.2147 35.661 73.2205C39.0118 73.231 42.3625 73.2368 45.7133 73.2403C50.0029 73.2458 54.2922 73.2698 58.5818 73.2983C61.8829 73.3169 65.184 73.3221 68.4852 73.3237C70.0664 73.3267 71.6477 73.3347 73.2288 73.3478C75.443 73.3649 77.6563 73.363 79.8705 73.3565C81.1294 73.3602 82.3883 73.3638 83.6854 73.3676C87.2826 72.9687 89.169 72.2269 91.9999 70.0001C93.5269 65.946 93.5269 65.946 92.9999 57.0001C65.2799 57.0001 37.5599 57.0001 8.99988 57.0001Z" fill="#FC2230"/>
<path d="M29 18.0225C29 16.3656 30.3206 15 31.9775 15V15C33.6344 15 35 16.3206 35 17.9775V17.9775C35 19.6344 33.6794 21 32.0225 21V21C30.3656 21 29 19.6794 29 18.0225V18.0225Z" fill="#FC2230"/>
<path d="M23 12.0225C23 10.3656 24.3206 9 25.9775 9V9C27.6344 9 29 10.3206 29 11.9775V11.9775C29 13.6344 27.6794 15 26.0225 15V15C24.3656 15 23 13.6794 23 12.0225V12.0225Z" fill="#FC2230"/>
<path d="M33 10.0225C33 8.36565 34.3206 7 35.9775 7V7C37.6344 7 39 8.32065 39 9.9775V9.9775C39 11.6344 37.6794 13 36.0225 13V13C34.3656 13 33 11.6794 33 10.0225V10.0225Z" fill="#FC2230"/>
</svg>
