<svg width="80" height="80" viewBox="0 0 80 80" fill="none" xmlns="http://www.w3.org/2000/svg">
<path d="M43.461 0.669438C44.9318 1.53097 46.1523 2.89839 47.3506 4.09675C47.5504 4.29561 47.5504 4.29561 47.7542 4.4985C48.1191 4.86193 48.4836 5.22569 48.848 5.58962C49.2429 5.98381 49.6382 6.37757 50.0335 6.77139C50.9847 7.71942 51.9353 8.6682 52.8857 9.61707C53.2442 9.97501 53.6028 10.3329 53.9614 10.6908C55.5443 12.2705 57.127 13.8505 58.709 15.431C59.095 15.8166 59.4809 16.2022 59.8668 16.5878C60.0107 16.7315 60.0107 16.7315 60.1575 16.8781C61.7132 18.4323 63.2703 19.9851 64.8279 21.5374C66.4301 23.1342 68.0311 24.7321 69.631 26.3312C70.5281 27.2278 71.4257 28.1239 72.3246 29.0187C73.0895 29.7801 73.8533 30.5425 74.6157 31.3063C75.0043 31.6955 75.3934 32.0842 75.7838 32.4716C76.208 32.8924 76.6297 33.3156 77.0512 33.7391C77.1736 33.8598 77.2961 33.9805 77.4222 34.1049C78.2095 34.9013 78.7865 35.7261 79.321 36.7085C79.4155 36.8772 79.5101 37.0459 79.6074 37.2197C80.1805 39.052 80.1599 41.702 79.321 43.4445C79.0176 43.9289 79.0176 43.9289 78.697 44.3511C78.5977 44.4856 78.4984 44.6201 78.396 44.7587C77.1452 46.2932 75.4748 47.1473 73.5199 47.4316C73.0709 47.461 72.635 47.4746 72.186 47.473C72.061 47.4726 71.9361 47.4723 71.8074 47.4719C71.7129 47.4715 71.6185 47.471 71.5211 47.4705C71.5216 47.6546 71.5216 47.6546 71.522 47.8424C71.5289 50.8356 71.5341 53.8287 71.5373 56.8218C71.5389 58.2693 71.5411 59.7167 71.5447 61.1642C71.5478 62.4266 71.5498 63.6889 71.5505 64.9513C71.5509 65.619 71.5518 66.2868 71.5541 66.9545C71.5563 67.5845 71.5569 68.2144 71.5564 68.8444C71.5565 69.0742 71.5571 69.304 71.5583 69.5338C71.5737 72.6101 71.0714 75.2505 68.9472 77.5827C66.6094 79.8173 63.9578 79.9849 60.895 79.9747C60.5601 79.975 60.2251 79.9755 59.8902 79.9761C59.1913 79.9768 58.4925 79.9758 57.7936 79.9736C56.8982 79.9709 56.0028 79.9724 55.1074 79.9752C54.4171 79.9769 53.7269 79.9764 53.0366 79.9752C52.7063 79.9749 52.3761 79.9752 52.0458 79.9763C51.5851 79.9775 51.1245 79.9757 50.6638 79.9731C50.5278 79.9741 50.3918 79.975 50.2517 79.976C49.5155 79.9683 49.032 79.92 48.4334 79.4446C47.8579 78.7893 47.6343 78.4319 47.6319 77.5669C47.6311 77.4005 47.6302 77.2341 47.6293 77.0627C47.6292 76.8793 47.629 76.696 47.6289 76.5071C47.6281 76.3145 47.6273 76.122 47.6265 75.9237C47.6248 75.5043 47.6234 75.0849 47.6224 74.6655C47.6207 74.0014 47.6176 73.3373 47.6141 72.6732C47.6044 70.7844 47.596 68.8957 47.5908 67.007C47.588 65.9643 47.5835 64.9216 47.5771 63.879C47.5738 63.3276 47.5714 62.7762 47.5711 62.2247C47.5707 61.6083 47.5667 60.992 47.5624 60.3756C47.5629 60.1945 47.5634 60.0133 47.5639 59.8267C47.5488 58.356 47.3088 56.9862 46.2495 55.893C45.4198 55.2797 44.6647 55.0949 43.6519 55.088C43.4748 55.0865 43.2978 55.085 43.1153 55.0835C42.9245 55.0828 42.7338 55.0821 42.5372 55.0815C42.3402 55.0806 42.1432 55.0797 41.9403 55.0788C41.5233 55.0773 41.1063 55.0762 40.6893 55.0757C40.1578 55.0748 39.6264 55.0711 39.0949 55.0666C38.5848 55.063 38.0748 55.0627 37.5648 55.062C37.3753 55.06 37.1858 55.0581 36.9905 55.0561C35.7624 55.0593 34.8829 55.191 33.8184 55.8345C32.9261 56.7508 32.5029 57.7996 32.5012 59.0651C32.5005 59.2339 32.4999 59.4027 32.4993 59.5766C32.4994 59.7611 32.4994 59.9455 32.4995 60.1355C32.499 60.3304 32.4984 60.5252 32.4979 60.7259C32.4967 61.1493 32.4959 61.5727 32.4953 61.9961C32.4944 62.666 32.4918 63.3359 32.4889 64.0058C32.4879 64.2353 32.4869 64.4649 32.4859 64.6944C32.4854 64.8093 32.4849 64.9243 32.4844 65.0427C32.4779 66.6019 32.4727 68.161 32.4708 69.7202C32.4695 70.7725 32.466 71.8248 32.46 72.8772C32.4569 73.4337 32.455 73.9902 32.4558 74.5468C32.4566 75.1677 32.4527 75.7886 32.4483 76.4095C32.4494 76.5933 32.4504 76.7771 32.4515 76.9665C32.4406 77.9147 32.4254 78.5673 31.7417 79.2887C30.9606 79.9772 30.3183 80.0025 29.3258 79.9933C29.1795 79.9944 29.0333 79.9955 28.8826 79.9966C28.4003 79.9993 27.9182 79.9975 27.4359 79.9954C27.0989 79.9958 26.762 79.9964 26.4251 79.9972C25.7188 79.9981 25.0125 79.9968 24.3062 79.9939C23.4051 79.9904 22.5041 79.9924 21.603 79.9961C20.9068 79.9984 20.2106 79.9977 19.5144 79.996C19.1824 79.9956 18.8504 79.9961 18.5184 79.9976C15.1944 80.009 15.1944 80.009 13.6459 79.2887C13.4667 79.206 13.2876 79.1234 13.103 79.0383C10.767 77.6733 9.42783 75.789 8.65397 73.2058C8.44807 71.9996 8.47714 70.7881 8.48027 69.5685C8.48031 69.3271 8.48029 69.0856 8.4802 68.8442C8.48015 68.1917 8.48107 67.5393 8.48216 66.8868C8.48314 66.2038 8.48323 65.5208 8.48341 64.8378C8.48389 63.5459 8.48517 62.2539 8.48674 60.9619C8.48849 59.4904 8.48934 58.019 8.49013 56.5475C8.49175 53.5219 8.4945 50.4962 8.49798 47.4705C8.39204 47.4714 8.2861 47.4723 8.17695 47.4732C8.03736 47.4739 7.89776 47.4745 7.75394 47.4752C7.61583 47.4761 7.47772 47.477 7.33542 47.4779C5.23828 47.4393 3.48129 46.6122 1.98628 45.1901C0.446914 43.5684 -0.025385 41.7656 0.00103974 39.5731C0.0972505 36.9109 1.5156 35.193 3.34709 33.3756C3.48274 33.2392 3.61839 33.1027 3.75816 32.9621C4.13034 32.5881 4.50352 32.2152 4.8772 31.8428C5.28171 31.4391 5.68487 31.034 6.08821 30.6292C6.87671 29.8381 7.66646 29.0484 8.4567 28.2591C9.09923 27.6173 9.74132 26.9751 10.3831 26.3326C10.5205 26.195 10.5205 26.195 10.6607 26.0547C10.8468 25.8684 11.0329 25.6821 11.219 25.4957C12.9611 23.7518 14.7046 22.0095 16.4486 20.2676C18.0423 18.6757 19.6342 17.082 21.2252 15.4875C22.8617 13.8475 24.4994 12.2087 26.1383 10.5711C27.0573 9.65276 27.9759 8.73402 28.8932 7.81407C29.6738 7.03131 30.4555 6.24966 31.2386 5.4694C31.6377 5.07173 32.0363 4.67357 32.4335 4.27403C32.8649 3.84006 33.2988 3.40855 33.733 2.97724C33.8569 2.85187 33.9808 2.7265 34.1084 2.59733C34.9128 1.80347 35.7412 1.21771 36.7336 0.679186C36.9023 0.58469 37.071 0.490193 37.2449 0.392833C39.0705 -0.177935 41.7216 -0.160654 43.461 0.669438ZM36.7657 6.82649C36.6314 6.96011 36.497 7.09374 36.3585 7.23141C35.9875 7.60081 35.6176 7.97122 35.2481 8.3421C34.8487 8.74251 34.4479 9.14156 34.0474 9.54079C33.2636 10.3224 32.4811 11.1052 31.699 11.8885C31.0634 12.5251 30.4273 13.1612 29.7908 13.797C29.7002 13.8876 29.6096 13.9781 29.5162 14.0714C29.332 14.2554 29.1479 14.4393 28.9638 14.6233C27.238 16.3474 25.5137 18.0729 23.7899 19.799C22.3109 21.2797 20.8308 22.7593 19.3497 24.2379C17.6293 25.9556 15.9095 27.674 14.191 29.3937C14.0078 29.5771 13.8245 29.7604 13.6413 29.9438C13.5511 30.034 13.4609 30.1242 13.3681 30.2172C12.7328 30.8527 12.097 31.4877 11.4611 32.1225C10.6861 32.896 9.91194 33.6704 9.13886 34.4458C8.74445 34.8414 8.34969 35.2366 7.95389 35.6307C7.52486 36.058 7.09766 36.4871 6.67063 36.9164C6.54527 37.0407 6.41991 37.165 6.29076 37.2931C5.50702 38.085 4.84368 38.8014 4.84177 39.9742C4.86958 40.7779 5.04721 41.2152 5.53402 41.8556C6.41589 42.5536 7.0437 42.6526 8.14576 42.6629C8.35067 42.6666 8.55559 42.6703 8.76671 42.6741C9.09053 42.6796 9.41425 42.6842 9.73811 42.6863C10.0524 42.6887 10.3666 42.6952 10.6807 42.7019C10.8679 42.7041 11.0551 42.7064 11.248 42.7087C12.0147 42.8293 12.5004 43.1368 12.967 43.7571C13.2323 44.3082 13.2366 44.7094 13.237 45.3206C13.2377 45.4322 13.2384 45.5439 13.2391 45.659C13.2409 46.0323 13.2394 46.4055 13.2379 46.7788C13.2386 47.0469 13.2394 47.3149 13.2405 47.5829C13.2423 48.1599 13.2427 48.7368 13.242 49.3137C13.2409 50.2269 13.2434 51.14 13.2464 52.0532C13.2523 53.9928 13.2543 55.9323 13.2559 57.8719C13.2576 59.9632 13.26 62.0545 13.2669 64.1458C13.2698 65.0526 13.2704 65.9593 13.2693 66.8661C13.2691 67.4318 13.2707 67.9974 13.2729 68.5631C13.2736 68.8243 13.2734 69.0855 13.2724 69.3466C13.2657 71.1553 13.2702 72.8161 14.5886 74.1898C15.6841 75.1364 16.8885 75.2538 18.303 75.2511C18.4538 75.2512 18.4538 75.2512 18.6077 75.2512C18.9361 75.2511 19.2644 75.2499 19.5927 75.2487C19.822 75.2484 20.0513 75.2481 20.2805 75.248C20.8809 75.2474 21.4813 75.2459 22.0816 75.2441C22.6955 75.2425 23.3093 75.2418 23.9232 75.241C25.1254 75.2394 26.3275 75.2367 27.5297 75.2334C27.5303 75.1012 27.5303 75.1012 27.5309 74.9663C27.5401 72.8127 27.5519 70.6591 27.5665 68.5055C27.5735 67.4641 27.5796 66.4226 27.5838 65.3811C27.5878 64.3748 27.5942 63.3686 27.602 62.3623C27.6046 61.9796 27.6064 61.5969 27.6073 61.2142C27.6168 57.8642 27.8013 55.0531 30.2493 52.5061C32.2854 50.6935 34.5606 50.1778 37.2272 50.2007C37.4469 50.2006 37.6667 50.2004 37.8864 50.2C38.3429 50.1998 38.7993 50.2017 39.2558 50.2053C39.8354 50.2097 40.415 50.2093 40.9947 50.2073C41.4471 50.2062 41.8994 50.2074 42.3518 50.2093C42.6677 50.2104 42.9836 50.2097 43.2994 50.209C45.8482 50.2348 48.0828 50.9084 49.9538 52.698C51.8062 54.7395 52.3773 57.1593 52.3831 59.8463C52.3847 60.0139 52.3863 60.1815 52.3879 60.3542C52.3927 60.9018 52.3953 61.4495 52.398 61.9972C52.4009 62.3794 52.404 62.7616 52.4071 63.1438C52.4151 64.1451 52.4213 65.1464 52.4271 66.1477C52.4334 67.1713 52.4414 68.1949 52.4492 69.2185C52.4642 71.2235 52.4775 73.2284 52.4894 75.2334C53.8076 75.2407 55.1257 75.2462 56.4439 75.2496C57.0561 75.2512 57.6683 75.2534 58.2805 75.257C58.8722 75.2604 59.4639 75.2622 60.0556 75.263C60.2804 75.2636 60.5052 75.2647 60.7301 75.2664C62.7486 75.281 64.3622 75.1687 65.876 73.7225C66.8367 72.2678 66.7511 70.641 66.7427 68.964C66.7431 68.6948 66.7437 68.4256 66.7445 68.1565C66.7458 67.5796 66.7457 67.0028 66.7445 66.426C66.7427 65.5136 66.7446 64.6012 66.7471 63.6888C66.7527 61.4238 66.7537 59.1588 66.7533 56.8937C66.7531 55.1308 66.7542 53.3679 66.7596 51.605C66.7622 50.6982 66.7619 49.7914 66.7594 48.8846C66.7585 48.3208 66.7602 47.7571 66.7626 47.1933C66.7632 46.9321 66.7627 46.6709 66.761 46.4097C66.759 46.0529 66.7607 45.6962 66.7634 45.3393C66.7633 45.04 66.7633 45.04 66.7633 44.7347C66.8762 43.9526 67.2141 43.4591 67.8278 42.9708C68.3445 42.7487 68.7447 42.7314 69.3067 42.728C69.5104 42.7246 69.7141 42.7212 69.924 42.7177C70.1379 42.716 70.3518 42.7146 70.5657 42.7134C72.6683 42.755 72.6683 42.755 74.4558 41.7873C74.9526 41.2056 75.1555 40.7815 75.1676 40.0132C75.172 39.8867 75.1764 39.7602 75.181 39.6299C74.974 38.4038 74.0165 37.5773 73.1727 36.7407C73.039 36.6063 72.9054 36.472 72.7677 36.3335C72.3982 35.9626 72.0278 35.5927 71.6568 35.2233C71.2563 34.824 70.8572 34.4233 70.4579 34.0228C69.6762 33.2391 68.8933 32.4567 68.1098 31.6748C67.4731 31.0393 66.8369 30.4033 66.201 29.767C66.1104 29.6763 66.0198 29.5857 65.9265 29.4923C65.7425 29.3082 65.5586 29.1241 65.3746 28.94C63.6502 27.2146 61.9243 25.4906 60.198 23.767C58.717 22.2883 57.2372 20.8084 55.7583 19.3276C54.0403 17.6075 52.3216 15.888 50.6016 14.1698C50.4182 13.9866 50.2348 13.8034 50.0514 13.6202C49.9612 13.53 49.8709 13.4399 49.778 13.347C49.1423 12.7119 48.5072 12.0762 47.8724 11.4403C47.0987 10.6655 46.3242 9.89146 45.5486 9.11852C45.153 8.72418 44.7577 8.32948 44.3635 7.93376C43.9361 7.5048 43.5069 7.07767 43.0776 6.65071C42.9533 6.52537 42.8289 6.40004 42.7009 6.2709C41.9088 5.48731 41.1923 4.82407 40.0193 4.82217C39.8338 4.81765 39.8338 4.81765 39.6445 4.81303C38.4241 5.0406 37.6031 5.98221 36.7657 6.82649Z" fill="#FC2230"/>
</svg>
