<svg width="81" height="81" viewBox="0 0 81 81" fill="none" xmlns="http://www.w3.org/2000/svg">
<path d="M44.8775 2.26627C45.5671 2.7365 46.1367 3.31151 46.722 3.90331C46.8581 4.03848 46.9942 4.17365 47.1345 4.31292C47.5086 4.68499 47.8813 5.05837 48.2534 5.43241C48.6563 5.83679 49.0611 6.23939 49.4656 6.64222C50.2565 7.4303 51.0456 8.22003 51.8342 9.01038C52.4754 9.65299 53.1172 10.295 53.7594 10.9366C53.851 11.0281 53.9426 11.1196 54.037 11.2138C54.2231 11.3997 54.4092 11.5856 54.5953 11.7715C56.3382 13.5126 58.0791 15.2556 59.8194 16.9993C61.311 18.4936 62.8042 19.9863 64.2986 21.4779C66.0362 23.2122 67.7728 24.9475 69.5079 26.6844C69.6931 26.8698 69.8783 27.0552 70.0635 27.2406C70.1546 27.3318 70.2457 27.423 70.3396 27.517C70.98 28.158 71.6212 28.7983 72.2627 29.4383C73.045 30.2188 73.8261 31.0005 74.6059 31.7835C75.0034 32.1826 75.4013 32.5812 75.8006 32.9785C76.2344 33.41 76.6656 33.8439 77.0967 34.2781C77.222 34.402 77.3474 34.526 77.4765 34.6537C79.1205 36.3204 80.0529 38.1491 80.0772 40.5C80.065 41.6818 79.9408 42.6801 79.3828 43.7402C79.3192 43.8707 79.2556 44.0012 79.19 44.1356C78.2322 45.9205 76.6929 46.9876 74.8118 47.6362C73.9738 47.8224 73.1781 47.9146 72.3226 47.9098C72.1378 47.9091 72.1378 47.9091 71.9494 47.9083C71.8565 47.9076 71.7637 47.9069 71.668 47.9062C71.6684 48.0883 71.6684 48.0883 71.6689 48.2741C71.6757 51.2351 71.6808 54.1961 71.684 57.1571C71.6856 58.589 71.6877 60.021 71.6913 61.4529C71.6944 62.7017 71.6964 63.9505 71.697 65.1993C71.6974 65.8599 71.6984 66.5204 71.7006 67.181C71.7027 67.8042 71.7034 68.4274 71.7029 69.0507C71.703 69.278 71.7036 69.5053 71.7048 69.7326C71.72 72.7759 71.2232 75.388 69.1221 77.6952C66.8099 79.9057 64.1871 80.0715 61.1577 80.0615C60.8264 80.0618 60.4952 80.0622 60.1639 80.0628C59.4726 80.0635 58.7814 80.0625 58.0902 80.0603C57.2045 80.0577 56.3189 80.0592 55.4333 80.062C54.7505 80.0636 54.0678 80.0631 53.385 80.0619C53.0584 80.0616 52.7317 80.062 52.405 80.0631C51.9494 80.0642 51.4938 80.0625 51.0381 80.0599C50.9036 80.0608 50.7691 80.0617 50.6305 80.0627C49.9023 80.0551 49.4241 80.0073 48.8321 79.5371C48.2628 78.8888 48.0416 78.5352 48.0393 77.6795C48.0384 77.5149 48.0376 77.3503 48.0367 77.1807C48.0366 76.9993 48.0364 76.8179 48.0362 76.631C48.0355 76.4406 48.0347 76.2501 48.0339 76.0539C48.0322 75.639 48.0308 75.2241 48.0298 74.8092C48.0282 74.1522 48.0251 73.4953 48.0216 72.8383C48.0121 70.9698 48.0038 69.1014 47.9987 67.2329C47.9958 66.2014 47.9913 65.17 47.9851 64.1385C47.9818 63.593 47.9794 63.0475 47.9791 62.502C47.9787 61.8922 47.9748 61.2825 47.9706 60.6728C47.971 60.4936 47.9715 60.3144 47.972 60.1297C47.9571 58.6749 47.7197 57.3198 46.6719 56.2383C45.8513 55.6316 45.1044 55.4488 44.1027 55.4419C43.9275 55.4404 43.7524 55.439 43.5719 55.4374C43.3832 55.4368 43.1945 55.4361 43.0001 55.4354C42.8053 55.4346 42.6105 55.4337 42.4097 55.4328C41.9973 55.4313 41.5848 55.4302 41.1724 55.4297C40.6467 55.4289 40.121 55.4252 39.5953 55.4208C39.0909 55.4172 38.5864 55.4169 38.0819 55.4161C37.8945 55.4142 37.707 55.4123 37.5139 55.4104C36.2992 55.4136 35.4293 55.5438 34.3764 56.1804C33.4938 57.0868 33.0752 58.1244 33.0735 59.3763C33.0729 59.5433 33.0723 59.7103 33.0717 59.8824C33.0717 60.0648 33.0718 60.2473 33.0719 60.4352C33.0714 60.628 33.0708 60.8207 33.0703 61.0193C33.0691 61.4382 33.0683 61.857 33.0678 62.2759C33.0668 62.9386 33.0643 63.6013 33.0614 64.264C33.0604 64.491 33.0594 64.7181 33.0585 64.9452C33.058 65.0589 33.0575 65.1726 33.057 65.2897C33.0505 66.8322 33.0454 68.3746 33.0435 69.917C33.0422 70.9581 33.0387 71.9991 33.0328 73.0401C33.0298 73.5907 33.0278 74.1412 33.0286 74.6918C33.0295 75.3061 33.0256 75.9203 33.0213 76.5346C33.0223 76.7164 33.0233 76.8982 33.0244 77.0855C33.0136 78.0235 32.9986 78.6692 32.3223 79.3828C31.5497 80.0639 30.9144 80.0889 29.9327 80.0798C29.7881 80.0809 29.6434 80.082 29.4944 80.0831C29.0174 80.0858 28.5405 80.084 28.0635 80.082C27.7302 80.0824 27.3969 80.083 27.0637 80.0837C26.3651 80.0847 25.6666 80.0833 24.968 80.0804C24.0767 80.0769 23.1855 80.0789 22.2942 80.0826C21.6055 80.0849 20.9169 80.0842 20.2283 80.0826C19.9 80.0822 19.5716 80.0827 19.2433 80.0841C15.9486 80.0954 15.9486 80.0954 14.4239 79.3828C14.2974 79.3245 14.171 79.2661 14.0407 79.206C11.7396 78.0865 10.5149 76.0909 9.60209 73.8088C9.24478 72.4391 9.31092 71.0135 9.31455 69.6093C9.3146 69.372 9.31457 69.1346 9.31448 68.8973C9.31444 68.2566 9.31534 67.6159 9.31642 66.9752C9.31739 66.3043 9.31748 65.6334 9.31766 64.9625C9.31814 63.6937 9.31941 62.4249 9.32096 61.156C9.32268 59.7108 9.32353 58.2656 9.3243 56.8204C9.32591 53.849 9.32863 50.8776 9.33207 47.9062C9.22729 47.9071 9.1225 47.908 9.01455 47.9088C8.87647 47.9095 8.7384 47.9102 8.59614 47.9109C8.45954 47.9117 8.32293 47.9126 8.18219 47.9135C6.10792 47.8753 4.37009 47.0571 2.89138 45.6502C1.3688 44.046 0.90165 42.2625 0.927786 40.0936C1.02295 37.46 2.42583 35.7605 4.23735 33.9626C4.37152 33.8276 4.50569 33.6926 4.64393 33.5535C5.01206 33.1836 5.38117 32.8147 5.75078 32.4462C6.15088 32.0469 6.54964 31.6462 6.94858 31.2457C7.72848 30.4631 8.50962 29.6818 9.29124 28.901C9.92676 28.2661 10.5619 27.6308 11.1967 26.9952C11.3326 26.8591 11.3326 26.8591 11.4712 26.7203C11.6553 26.536 11.8394 26.3516 12.0235 26.1673C13.7465 24.4422 15.471 22.7185 17.196 20.9953C18.7723 19.4205 20.3469 17.844 21.9206 16.2666C23.5392 14.6442 25.159 13.0229 26.78 11.4029C27.689 10.4944 28.5976 9.58554 29.5049 8.67547C30.277 7.90111 31.0502 7.12785 31.8247 6.35598C32.2195 5.96256 32.6137 5.56869 33.0066 5.17344C33.4333 4.74412 33.8625 4.31724 34.2919 3.89056C34.4144 3.76654 34.537 3.64252 34.6632 3.51473C37.5884 0.627472 41.3733 0.13687 44.8775 2.26627Z" fill="#FC2230"/>
</svg>
