<svg width="91" height="88" viewBox="0 0 91 88" fill="none" xmlns="http://www.w3.org/2000/svg">
<path d="M71.0989 8.71652L70.4787 8.76682C70.472 8.76737 70.4627 8.76831 70.4511 8.7695C70.3197 8.7829 69.8888 8.82686 69.4546 8.66878C69.1081 8.54263 68.8057 8.29801 68.6729 8.19034C61.8929 3.5934 52.7867 1.21034 44.5615 1.52812C35.1724 1.96595 26.57 4.87067 19.0902 10.4608C19.0897 10.4612 19.0893 10.4615 19.0888 10.4619L18.7622 10.7071L18.7566 10.7114L18.7565 10.7114C16.0974 12.6891 13.7593 15.2215 11.5953 17.8774L11.2091 18.3587L11.2066 18.3619C9.41335 20.5846 7.92984 23.0245 6.69329 25.6243C6.69309 25.6247 6.6929 25.6251 6.69271 25.6255L6.52762 25.9742L6.52367 25.9825L6.52365 25.9825C3.80555 31.6327 2.47068 37.5924 2.44685 43.8521C2.44685 43.8524 2.44685 43.8528 2.44685 43.8531L2.44572 44.3316L2.44571 44.3344C2.44253 45.079 2.44348 45.8188 2.45359 46.5564C2.68456 56.5164 7.35878 67.1551 14.6274 74.0434C14.6276 74.0435 14.6277 74.0437 14.6279 74.0439L14.8946 74.2964L14.9006 74.302C16.3338 75.6739 17.7105 76.9531 19.2302 78.0724C19.511 78.2744 19.7976 78.4807 20.0834 78.6904L20.084 78.6908C23.4655 81.1746 27.2181 83.2025 31.1844 84.5097C31.186 84.5103 31.1877 84.5108 31.1893 84.5113L31.5337 84.6226L31.5383 84.6241C31.9581 84.7613 32.3812 84.9095 32.8094 85.0595C33.7812 85.3998 34.7793 85.7493 35.8257 86.001C37.2874 86.3525 38.4466 86.3991 39.2668 86.0799C39.8176 85.7429 40.18 85.2921 40.3733 84.7149C40.4569 83.8561 40.3767 83.3359 40.038 82.7738C39.412 82.1579 38.8109 81.9151 37.6726 81.6825C29.0181 79.9345 21.0856 75.2035 15.5445 68.3708L15.5412 68.3668L15.306 68.0745C15.3053 68.0737 15.3047 68.073 15.3041 68.0722C13.0441 65.2866 11.2189 62.2859 9.84585 58.9566L9.84224 58.9478L9.84227 58.9478L9.69199 58.5767C9.69192 58.5766 9.69185 58.5764 9.69178 58.5762C7.19609 52.4205 6.22183 45.4574 7.22021 38.8282L7.2238 38.8044L7.22816 38.7807L7.34503 38.1445C7.34535 38.1427 7.34568 38.1408 7.34601 38.139C8.72864 30.2913 12.3527 22.7082 18.2909 17.108L18.2919 17.1071L18.5667 16.8484C24.0006 11.644 30.5386 8.31125 37.8937 6.76997L37.9005 6.76853L38.4143 6.66339C38.4153 6.66319 38.4162 6.66299 38.4172 6.66278C39.4741 6.44229 40.5514 6.25834 41.667 6.1567L41.6892 6.15467L41.7115 6.15331C49.8254 5.65661 59.983 6.80864 66.7978 12.4832L67.8391 13.3503L67.0819 14.474L66.8755 14.7804L66.6713 15.0836C66.3912 15.5016 66.1045 15.928 65.8097 16.3524L65.8084 16.3542C65.6528 16.5775 65.4977 16.8013 65.3431 17.0254L65.1062 17.3688L65.1019 17.3749L65.0976 17.3811C64.9685 17.5642 64.8559 17.7261 64.7571 17.8755C66.1064 17.8481 66.2675 17.8339 69.6706 17.5292C70.3291 17.4691 70.9901 17.409 71.652 17.3511L71.6526 17.3511C72.0875 17.3132 72.5223 17.2749 72.957 17.2362L71.0989 8.71652ZM71.0989 8.71652L71.5014 8.24198L71.5213 8.21852C71.6272 8.09375 71.722 7.982 71.8163 7.85344C71.9055 7.73179 71.9907 7.59986 72.095 7.43824L72.1061 7.42112L72.39 7.00281L72.3964 6.99324L72.6998 6.53879C72.7005 6.5377 72.7012 6.53661 72.702 6.53552C73.3575 5.55997 73.7341 5.00351 73.9807 4.66944C74.0458 4.82701 74.1041 5.00359 74.1641 5.21434L74.1661 5.2214L74.2147 5.38896L74.2634 5.55681C74.2634 5.55708 74.2635 5.55736 74.2636 5.55763C74.367 5.9164 74.4678 6.27723 74.57 6.6443L74.572 6.65136C74.645 6.90829 74.718 7.16518 74.7912 7.42202C74.9431 7.95723 75.0937 8.49318 75.2432 9.02993L75.2433 9.0302C75.4361 9.72151 75.6325 10.4105 75.8293 11.0966C75.9799 11.6233 76.1286 12.1513 76.2772 12.6815L76.2777 12.683C76.3495 12.9383 76.422 13.1934 76.4953 13.4485C77.0047 15.2274 77.1725 15.8508 77.1934 16.2176C77.194 16.228 77.1949 16.2371 77.1959 16.2458C77.2029 16.3108 77.2069 16.3481 77.0188 16.7081C76.826 16.825 76.4784 16.946 75.8876 17.0234C75.5387 17.0691 75.1666 17.0929 74.7705 17.1124C74.6906 17.1164 74.6077 17.1202 74.5231 17.1241C74.2141 17.1384 73.8825 17.1538 73.5882 17.1794L73.5843 17.1798L72.958 17.2361L71.0989 8.71652Z" stroke="#7ED321" stroke-width="3"/>
<path d="M44.7228 18.4592L44.7228 18.4563C44.7216 18.2456 44.7183 18.0397 44.7118 17.8373C44.5214 17.5321 44.3117 17.3371 44.0012 17.1604C43.6196 16.9936 43.3182 16.9621 43.0792 16.9941C42.8444 17.0255 42.5738 17.1308 42.2673 17.389C41.7835 17.8873 41.7757 17.9324 41.7679 17.9776C41.7671 17.9823 41.7663 17.9869 41.7651 17.992C41.7419 18.083 41.7145 18.2637 41.7026 18.6688C41.6908 19.0686 41.6953 19.5925 41.7022 20.3484L44.7228 18.4592ZM44.7228 18.4592L44.728 19.1201L44.731 19.8495L44.731 19.8531M44.7228 18.4592L44.731 19.8531M44.731 19.8531L44.7362 20.6213C44.7362 20.6215 44.7362 20.6216 44.7362 20.6218C44.7409 21.3164 44.7446 22.0113 44.748 22.7071L44.748 22.7075M44.731 19.8531L44.748 22.7075M44.748 22.7075C44.7515 23.3666 44.7557 24.0256 44.7599 24.6836L44.7612 24.8902C44.7612 24.8902 44.7612 24.8903 44.7612 24.8903C44.7699 26.267 44.7777 27.6438 44.7852 29.0208V29.0209M44.748 22.7075L44.7852 29.0209M44.7852 29.0209C44.7938 30.5892 44.8034 32.1575 44.813 33.7252C44.8328 36.9504 44.8514 40.1757 44.8691 43.4011L44.8741 44.3117M44.7852 29.0209L44.8741 44.3117M44.8741 44.3117L45.6843 44.7274M44.8741 44.3117L45.6843 44.7274M45.6843 44.7274L47.6149 45.718L48.2699 46.0541C49.7906 46.8344 51.3121 47.6148 52.8344 48.394L53.1372 48.549L53.1372 48.549M45.6843 44.7274L53.1372 48.549M53.1372 48.549C54.7398 49.3692 56.3432 50.1871 57.9465 51.0039L53.1372 48.549ZM65.8459 55.0464L65.8427 55.0448C64.5024 54.3498 63.1593 53.66 61.8135 52.9749L65.8459 55.0464ZM65.8459 55.0464L66.3679 55.3155C66.3686 55.3158 66.3693 55.3162 66.3699 55.3166C66.8493 55.5647 67.3281 55.8166 67.8089 56.071L67.8164 56.0749M65.8459 55.0464L67.8164 56.0749M60.7688 50.8319L60.1169 52.1103C59.3934 51.7413 58.67 51.3725 57.9466 51.0039L60.7688 50.8319ZM60.7688 50.8319L60.1169 52.1103C60.6821 52.3986 61.2476 52.6868 61.8134 52.9748L60.7688 50.8319ZM67.8164 56.0749L67.8239 56.0788M67.8164 56.0749L67.8239 56.0788M67.8239 56.0788L68.2384 56.2922C69.0445 56.7256 69.3883 57.0278 69.5831 57.5028C69.6562 58.2066 69.5815 58.5849 69.3092 58.9919C68.9921 59.2987 68.6936 59.4294 68.1077 59.4974C67.6215 59.4672 67.203 59.264 66.3714 58.8452L66.3629 58.8409M67.8239 56.0788L66.3629 58.8409M66.3629 58.8409L66.3544 58.8367M66.3629 58.8409L66.3544 58.8367M66.3544 58.8367L65.8699 58.6003C65.8693 58.6 65.8686 58.5997 65.868 58.5994C64.6211 57.9867 63.3847 57.3444 62.1413 56.689L62.1394 56.688M66.3544 58.8367L62.1394 56.688M62.1394 56.688C60.9843 56.0812 59.8207 55.4908 58.668 54.9059C58.5028 54.822 58.3379 54.7384 58.1733 54.6547L56.5754 53.8427L55.8957 55.1799L56.5754 53.8427L56.1791 53.6412C56.179 53.6412 56.1789 53.6412 56.1788 53.6411C54.6204 52.8486 53.0648 52.0495 51.5062 51.2488L50.8449 52.536M62.1394 56.688L50.8449 52.536M50.8449 52.536L51.5062 51.2488C50.7036 50.8364 49.9007 50.4249 49.0974 50.014L48.7724 49.8477L48.7723 49.8477M50.8449 52.536L48.7723 49.8477M48.7723 49.8477L47.2491 49.0688C47.249 49.0687 47.2489 49.0687 47.2488 49.0686C45.8518 48.3541 44.456 47.6364 43.0593 46.9176L43.0592 46.9176M48.7723 49.8477L43.0592 46.9176M43.0592 46.9176L42.4497 46.6039L41.7813 46.2599C41.7669 42.7758 41.756 39.2917 41.7491 35.8077L41.7491 35.8076M43.0592 46.9176L41.7491 35.8076M41.7491 35.8076C41.7455 34.0477 41.7406 32.2871 41.7326 30.5262C41.7257 28.9942 41.7212 27.4625 41.7197 25.9308L41.7197 25.9307M41.7491 35.8076L41.7197 25.9307M41.7197 25.9307C41.7188 25.1175 41.7167 24.3029 41.7116 23.4876L41.7197 25.9307ZM41.7065 21.202L41.7065 21.2051C41.7054 21.9665 41.7069 22.7272 41.7116 23.4875L41.7065 21.202ZM41.7065 21.202C41.7063 20.9179 41.7049 20.6336 41.7022 20.3491L41.7065 21.202Z" fill="#7ED321" stroke="#7ED321" stroke-width="3"/>
<path d="M86.3177 58.14L86.3098 58.1621L86.3025 58.1846L86.1554 58.6383C85.8351 59.5601 85.4703 60.1311 84.8357 60.5926C84.0474 60.8436 83.4816 60.8509 82.8044 60.6056C82.3017 60.3464 81.9747 60.0598 81.6674 59.6068C81.4264 58.5918 81.5862 57.7799 82.0549 56.4954L82.055 56.4954L82.0562 56.492L82.2035 56.0851C82.5264 55.2569 82.8047 54.7943 83.2802 54.4382C83.8076 54.2254 84.204 54.1448 84.5435 54.1458C84.8791 54.1467 85.2534 54.2275 85.7339 54.4761C86.0825 54.7269 86.2764 54.9077 86.4038 55.0732C86.5171 55.2204 86.6151 55.4041 86.6856 55.7135C86.7894 56.5415 86.6664 57.1698 86.3177 58.14Z" stroke="#7ED321" stroke-width="3"/>
<path d="M68.1528 80.5749L68.1389 80.583L68.1252 80.5915L67.8067 80.7879C66.9152 81.3152 66.1665 81.5136 65.2877 81.4016C64.7988 81.2539 64.3529 80.8388 63.866 80.0787C63.7293 79.659 63.7321 79.0502 63.8881 78.4267C64.1343 77.943 64.5433 77.5264 65.1347 77.1175C65.6739 76.7447 66.2664 76.4401 66.9387 76.0944C67.0502 76.0371 67.164 75.9786 67.2801 75.9184C67.8884 75.7427 68.5361 75.773 69.1633 76.0084C69.5439 76.2662 69.8734 76.658 70.2322 77.2161C70.3617 77.9572 70.2994 78.5016 70.0138 79.0789C69.5603 79.6675 68.9865 80.0852 68.1528 80.5749Z" stroke="#7ED321" stroke-width="3"/>
<path d="M75.5764 68.2145L75.5864 68.2025L75.5961 68.1903L75.8383 67.8848C76.4399 67.143 77.0436 66.6953 77.607 66.5032C78.0861 66.3398 78.6387 66.3235 79.3248 66.6223C79.9965 67.2286 80.2966 67.6587 80.3891 68.2082C80.3818 69.5887 79.7361 70.423 78.381 71.8689C77.8568 72.3912 77.3793 72.6416 76.805 72.7001C75.9781 72.6333 75.3572 72.3786 74.886 71.9175C74.5342 71.2428 74.3955 70.7389 74.4389 70.2012C74.6993 69.4365 75.0248 68.8813 75.5764 68.2145Z" stroke="#7ED321" stroke-width="3"/>
<path d="M82.2842 27.3073C83.1561 26.9522 83.9373 26.9804 84.8652 27.3898C85.7493 28.2504 86.2983 29.6289 86.5026 31.0904C86.5204 31.6406 86.4944 31.9917 86.4211 32.2697C86.3562 32.5157 86.2391 32.7601 85.9735 33.0536C85.5124 33.4884 85.0959 33.6542 84.3545 33.6892C83.7236 33.6631 83.1566 33.4487 82.658 33.0454C81.8736 31.9847 81.2798 30.2412 81.2439 28.93C81.3432 28.3408 81.6503 27.8616 82.2842 27.3073Z" stroke="#7ED321" stroke-width="3"/>
<path d="M51.8602 82.0902C54.0725 81.3484 55.6259 81.0424 56.9081 81.9267C57.3248 82.3267 57.5257 82.7886 57.5971 83.5208C57.5624 83.9244 57.4944 84.1966 57.4008 84.4163C57.3078 84.6345 57.1611 84.8672 56.8916 85.156C55.8622 85.9515 54.1316 86.2272 52.4001 86.1798C51.9586 86.0932 51.6474 85.8906 51.1389 85.3745C50.7869 84.7892 50.7123 84.2225 50.7994 83.2774C50.9741 82.8345 51.3493 82.4033 51.8602 82.0902Z" stroke="#7ED321" stroke-width="3"/>
<path d="M88.5653 43.8781L88.5653 43.8934L88.5656 43.9087L88.5782 44.4946C88.5814 45.6655 88.4686 46.189 87.9812 46.7195L87.7611 46.8676L87.7509 46.8745L87.7408 46.8815L87.444 47.0884C87.0453 47.3035 86.4866 47.339 85.63 47.1968C85.1481 47.033 84.7642 46.722 84.4213 46.201C84.1968 45.4392 84.1413 44.6962 84.145 43.7424L84.145 43.7252L84.1447 43.708L84.1365 43.2787C84.1369 42.3086 84.2626 41.772 84.6541 41.2831L84.9539 41.0374L84.9618 41.0309L84.9696 41.0243L85.3218 40.7275C85.5168 40.6017 85.8399 40.498 86.2787 40.4898C86.7094 40.4817 87.1419 40.5693 87.4762 40.7084C87.98 41.0181 88.3003 41.4105 88.5241 41.9989C88.5659 42.5004 88.5656 43.0097 88.5653 43.5945C88.5652 43.687 88.5651 43.7815 88.5653 43.8781Z" stroke="#7ED321" stroke-width="3"/>
</svg>
