<svg width="91" height="88" viewBox="0 0 91 88" fill="none" xmlns="http://www.w3.org/2000/svg">
<path d="M44.4976 0.0294722C53.0369 -0.301769 62.4916 2.16815 69.5657 6.98349C69.9697 7.30318 69.9697 7.30318 70.3575 7.27173C70.6069 6.97762 70.6069 6.97762 70.8552 6.59312C70.9521 6.45033 71.049 6.30753 71.1489 6.16042C71.2498 6.0092 71.3507 5.85798 71.4548 5.70219C73.2477 3.034 73.2477 3.034 74.0622 2.82111C74.2163 2.81401 74.3705 2.80692 74.5293 2.79961C75.1073 3.43955 75.3724 3.98024 75.6068 4.80365C75.6552 4.97082 75.6552 4.97082 75.7047 5.14136C75.8103 5.50759 75.9127 5.87458 76.015 6.24172C76.088 6.49863 76.161 6.75552 76.2342 7.01237C76.3869 7.55029 76.5381 8.0886 76.6882 8.62723C76.8797 9.31374 77.075 9.99911 77.2715 10.6842C77.4232 11.2146 77.5727 11.7455 77.7216 12.2766C77.7927 12.5294 77.8645 12.7819 77.937 13.0343C78.8982 16.3911 78.8982 16.3911 78.2015 17.678C77.1781 18.6886 75.0682 18.556 73.7186 18.6738C73.5116 18.6924 73.3046 18.711 73.0913 18.7301C72.6551 18.769 72.2189 18.8075 71.7826 18.8454C71.1234 18.9031 70.4644 18.963 69.8054 19.0231C66.1846 19.3473 66.1846 19.3473 64.5193 19.3806C64.2079 19.387 64.2079 19.387 63.8903 19.3936C63.4043 19.3121 63.4043 19.3121 63.0737 18.9885C62.8829 18.624 62.8829 18.624 62.8862 18.229C63.1211 17.5882 63.4791 17.0738 63.8715 16.517C63.9497 16.4037 64.0279 16.2904 64.1084 16.1736C64.2643 15.9476 64.4208 15.7219 64.5778 15.4966C64.8647 15.0836 65.1452 14.6664 65.4251 14.2487C65.5627 14.0444 65.7003 13.8402 65.8379 13.6359C59.4701 8.33354 49.7968 7.16117 41.8031 7.65051C40.7618 7.74539 39.7434 7.91833 38.7207 8.13175C38.5493 8.16684 38.3779 8.20193 38.2013 8.23808C31.1046 9.72523 24.8218 12.9328 19.5997 17.936C19.5074 18.0229 19.4151 18.1097 19.3201 18.1992C13.6503 23.5463 10.1571 30.8224 8.82231 38.4046C8.7831 38.6181 8.74388 38.8316 8.70348 39.0516C7.74829 45.3941 8.679 52.0861 11.0821 58.0131C11.1317 58.1357 11.1814 58.2584 11.2326 58.3847C12.5468 61.5715 14.2953 64.4483 16.4707 67.1294C16.5496 67.2273 16.6284 67.3252 16.7096 67.426C22.0264 73.9822 29.6498 78.5321 37.9711 80.2125C39.3267 80.4894 40.2628 80.8393 41.2195 81.8358C41.8969 82.867 41.9848 83.8122 41.8497 85.0179C41.5463 86.0676 40.8893 86.8786 39.9375 87.4259C37.3597 88.5334 33.5703 86.8663 31.0723 86.0499C30.956 86.0123 30.8398 85.9747 30.72 85.936C26.5831 84.5733 22.6892 82.4656 19.196 79.8997C18.9145 79.6932 18.631 79.4892 18.3475 79.2853C16.7405 78.1024 15.3015 76.7623 13.8633 75.3856C13.7752 75.3021 13.687 75.2187 13.5961 75.1326C6.03281 67.9653 1.19193 56.9425 0.953831 46.5841C0.943456 45.832 0.942515 45.0801 0.945725 44.328C0.9461 44.1694 0.946475 44.0109 0.946861 43.8475C0.971359 37.3699 2.35444 31.189 5.17192 25.3322C5.22676 25.2164 5.28161 25.1006 5.33811 24.9812C6.61831 22.2895 8.16224 19.7465 10.0391 17.42C10.1677 17.2597 10.2963 17.0994 10.4289 16.9342C12.6254 14.238 15.0557 11.5945 17.8614 9.50779C17.9701 9.42614 18.0788 9.34449 18.1908 9.26037C25.9289 3.47669 34.827 0.479364 44.4976 0.0294722Z" fill="#7ED321"/>
<path d="M44.6743 15.8183C45.3872 16.2078 45.8303 16.6979 46.1953 17.4201C46.2137 17.7622 46.2208 18.1049 46.2228 18.4475C46.2245 18.6665 46.2262 18.8855 46.2279 19.1112C46.229 19.3552 46.23 19.5993 46.231 19.8434C46.2326 20.0993 46.2344 20.3553 46.2362 20.6112C46.2409 21.3073 46.2445 22.0035 46.248 22.6996C46.2518 23.4267 46.2566 24.1537 46.2612 24.8807C46.2699 26.258 46.2777 27.6354 46.2852 29.0127C46.2938 30.5805 46.3033 32.1482 46.313 33.716C46.3328 36.9416 46.3513 40.1672 46.3691 43.3928C47.0126 43.723 47.6561 44.0532 48.2996 44.3834C48.518 44.4954 48.7363 44.6075 48.9547 44.7195C50.4754 45.4998 51.9962 46.28 53.5178 47.0587C53.6177 47.1098 53.7177 47.161 53.8207 47.2137C55.422 48.0334 57.0246 48.8508 58.6275 49.6674C59.3512 50.0361 60.0748 50.405 60.7983 50.774C61.3634 51.0622 61.9286 51.3503 62.4939 51.6381C63.843 52.3249 65.1894 53.0164 66.5332 53.7131C66.7062 53.8023 66.8792 53.8915 67.0574 53.9834C67.5432 54.2348 68.0271 54.4894 68.5105 54.7451C68.651 54.8175 68.7916 54.8899 68.9364 54.9644C69.93 55.4973 70.6812 56.0505 71.0527 57.1532C71.1878 58.2281 71.1122 59.0652 70.464 59.9577C69.793 60.6554 69.1154 60.9052 68.1587 61.0005C67.2349 60.9806 66.5068 60.5929 65.6966 60.1848C65.5355 60.1062 65.3744 60.0276 65.2085 59.9466C63.9418 59.3243 62.69 58.6738 61.4419 58.0159C60.1328 57.3283 58.8127 56.6618 57.4941 55.9922C56.9613 55.7215 56.4285 55.4507 55.8957 55.1799C55.6994 55.0801 55.6994 55.0801 55.4991 54.9783C53.9374 54.1841 52.3791 53.3836 50.8207 52.583C50.0189 52.1711 49.2168 51.7599 48.4143 51.3494C48.307 51.2945 48.1997 51.2396 48.0892 51.1831C47.5815 50.9234 47.0738 50.6638 46.5661 50.4042C45.1672 49.6888 43.7699 48.9703 42.3728 48.2513C42.1717 48.1478 41.9706 48.0443 41.7634 47.9377C41.2706 47.6841 40.7779 47.4305 40.2851 47.1769C40.2689 43.3882 40.2566 39.5994 40.2491 35.8106C40.2455 34.0514 40.2406 32.2922 40.2327 30.533C40.2257 28.9994 40.2212 27.4659 40.2197 25.9323C40.2188 25.1205 40.2167 24.3087 40.2116 23.4969C40.2069 22.7323 40.2054 21.9677 40.2065 21.203C40.2063 20.9229 40.2049 20.6428 40.2022 20.3627C40.1752 17.3858 40.1752 17.3858 41.2382 16.2957C42.2656 15.3943 43.444 15.254 44.6743 15.8183Z" fill="#7ED321"/>
<path d="M86.5234 53.1969C87.4107 53.8216 87.9401 54.383 88.1647 55.4562C88.3256 56.6396 88.1304 57.5313 87.7293 58.6473C87.6792 58.8017 87.6292 58.9562 87.5776 59.1153C87.1596 60.3241 86.5987 61.2315 85.513 61.9476C84.3494 62.354 83.3663 62.427 82.2021 61.9819C81.3412 61.5544 80.7757 61.0295 80.2764 60.2168C79.8383 58.6611 80.1017 57.4724 80.6458 55.9812C80.7218 55.7716 80.7218 55.7716 80.7992 55.5578C81.1896 54.5524 81.6271 53.7407 82.5498 53.1176C83.9721 52.5078 85.1306 52.4428 86.5234 53.1969Z" fill="#7ED321"/>
<path d="M69.8494 74.667C70.6377 75.1457 71.1774 75.8815 71.6502 76.6544C71.903 77.8217 71.8553 78.8156 71.2896 79.8775C70.6441 80.7616 69.8441 81.3211 68.9124 81.8683C68.8036 81.9354 68.6948 82.0025 68.5827 82.0716C67.4394 82.7503 66.3241 83.072 64.9863 82.8741C63.8547 82.589 63.102 81.6986 62.5147 80.7476C62.1582 79.8796 62.2246 78.7975 62.4746 77.9055C63.2577 76.183 65.0997 75.363 66.707 74.5259C67.7438 74.1839 68.8416 74.2481 69.8494 74.667Z" fill="#7ED321"/>
<path d="M80.157 65.3556C81.0401 66.1254 81.7331 66.8991 81.8885 68.0949C81.9192 70.1935 80.8497 71.4295 79.4589 72.9123C78.7127 73.6618 77.8848 74.1335 76.8135 74.2045C75.5827 74.1289 74.4888 73.7231 73.6602 72.8056C73.1424 71.8625 72.8231 70.9633 72.9649 69.8815C73.2972 68.8442 73.7272 68.0967 74.4207 67.2584C74.5022 67.1555 74.5838 67.0527 74.6678 66.9467C76.0926 65.1863 77.9602 64.2687 80.157 65.3556Z" fill="#7ED321"/>
<path d="M85.7087 26.1278C87.0734 27.3211 87.7673 29.2087 87.999 30.9627C88.0471 32.2308 87.9287 33.1532 87.045 34.1045C86.2528 34.8683 85.455 35.148 84.3615 35.1903C83.3098 35.1623 82.3581 34.782 81.5653 34.0857C80.5053 32.7426 79.7498 30.5265 79.7422 28.8322C79.8979 27.6277 80.5536 26.7887 81.4825 26.0203C82.9386 25.3519 84.2767 25.4327 85.7087 26.1278Z" fill="#7ED321"/>
<path d="M57.8567 80.7606C58.6941 81.5183 59.0168 82.4164 59.102 83.5127C59.0246 84.661 58.7208 85.4252 57.9069 86.2648C56.4199 87.4822 54.1193 87.7406 52.2466 87.6758C51.2457 87.5162 50.6361 87.018 49.9543 86.3078C49.246 85.2295 49.1905 84.2131 49.3242 82.9537C49.622 81.9938 50.3644 81.2054 51.2363 80.7176C53.4546 79.9652 55.8261 79.2838 57.8567 80.7606Z" fill="#7ED321"/>
<path d="M88.164 39.3721C89.0927 39.9127 89.6604 40.6596 90.0001 41.6726C90.0762 42.4057 90.0644 43.1398 90.0653 43.8764C90.0695 44.0743 90.0738 44.2722 90.0782 44.4761C90.0829 45.8475 89.9497 46.8752 88.951 47.8749C88.7765 47.9923 88.7765 47.9923 88.5986 48.112C88.4818 48.1934 88.3651 48.2748 88.2448 48.3586C87.3412 48.8892 86.2821 48.8357 85.2741 48.6576C84.2786 48.3575 83.5761 47.7115 83.0469 46.8328C82.7072 45.7907 82.6408 44.8266 82.645 43.7367C82.6422 43.5903 82.6394 43.444 82.6365 43.2932C82.6356 42.1083 82.7964 41.1267 83.5956 40.2113C83.73 40.1011 83.8645 39.9909 84.003 39.8773C84.2047 39.7074 84.2047 39.7074 84.4104 39.534C85.4242 38.8052 87.0525 38.8662 88.164 39.3721Z" fill="#7ED321"/>
</svg>
