<svg width="80" height="80" viewBox="0 0 80 80" fill="none" xmlns="http://www.w3.org/2000/svg">
<path d="M7.94964 0.958267C8.11264 0.957469 8.27564 0.956671 8.44357 0.955849C8.98982 0.953563 9.53604 0.953457 10.0823 0.953355C10.4739 0.952194 10.8656 0.95091 11.2573 0.949512C12.3215 0.946036 13.3858 0.944825 14.45 0.944054C15.1152 0.943557 15.7804 0.942563 16.4456 0.941464C18.2892 0.938484 20.1328 0.935985 21.9765 0.935542C22.1533 0.935499 22.1533 0.935499 22.3338 0.935455C22.5728 0.935399 22.8118 0.935344 23.0508 0.935289C23.2288 0.935247 23.2288 0.935247 23.4104 0.935204C23.5291 0.935177 23.6479 0.935149 23.7703 0.935121C25.6934 0.934582 27.6164 0.930468 29.5395 0.924769C31.5163 0.918958 33.4932 0.916018 35.47 0.915972C36.579 0.915883 37.6879 0.914602 38.7968 0.910183C39.8405 0.906043 40.8842 0.905861 41.928 0.908302C42.3101 0.908578 42.6923 0.907563 43.0744 0.905131C46.0246 0.887505 47.987 1.13252 50.1903 3.25841C50.3653 3.43377 50.5389 3.6105 50.711 3.78864C50.9736 4.05182 51.2473 4.29175 51.5305 4.5325C52.081 5.00609 52.5916 5.51111 53.1015 6.02738C53.5958 6.52778 54.0886 7.01873 54.6249 7.47464C55.2476 8.00387 55.8145 8.58296 56.3875 9.16463C56.813 9.59439 57.2442 10.0013 57.7099 10.3882C59.0608 11.5449 60.3019 13.2123 60.4539 15.0375C60.4547 15.2097 60.4556 15.3818 60.4564 15.5592C60.459 15.8572 60.459 15.8572 60.4616 16.1612C60.4619 16.3795 60.4623 16.5978 60.4626 16.816C60.464 17.0473 60.4655 17.2786 60.4672 17.5099C60.4714 18.1362 60.4737 18.7624 60.4757 19.3888C60.478 20.0439 60.4821 20.699 60.486 21.3541C60.4931 22.5939 60.4987 23.8337 60.5038 25.0736C60.5096 26.4854 60.5171 27.8972 60.5248 29.3089C60.5405 32.2125 60.5542 35.116 60.5663 38.0196C60.8571 37.6815 61.1477 37.3432 61.4382 37.0049C61.5197 36.9101 61.6012 36.8154 61.6852 36.7177C62.1548 36.1707 62.6172 35.6191 63.0705 35.0584C63.7013 34.2811 64.355 33.5255 65.0149 32.7729C65.5104 32.2058 65.9809 31.6272 66.4411 31.0308C67.6322 29.575 69.0553 28.5862 70.9257 28.2696C73.0792 28.0658 74.9272 28.4187 76.6582 29.7829C77.9136 30.8769 78.8661 32.3797 79.0311 34.074C79.0461 34.4186 79.05 34.761 79.0475 35.106C79.0469 35.2273 79.0463 35.3487 79.0456 35.4737C79.0288 36.345 78.9253 37.0758 78.5429 37.8672C78.504 37.9638 78.4651 38.0605 78.4251 38.16C77.9903 39.1572 77.2653 39.9446 76.5624 40.7618C76.4168 40.9323 76.2712 41.1029 76.1256 41.2735C75.8171 41.6346 75.5077 41.9949 75.1979 42.3548C74.5494 43.1087 73.9084 43.8688 73.2669 44.6286C73.0548 44.8795 72.8422 45.1299 72.6295 45.3803C71.9847 46.1395 71.3435 46.9005 70.7162 47.6743C70.0815 48.4547 69.4233 49.2129 68.7624 49.971C68.1645 50.6583 67.5842 51.3578 67.0106 52.0655C66.4499 52.7482 65.8717 53.4157 65.2955 54.0853C64.856 54.5963 64.4196 55.1099 63.9846 55.6248C63.9166 55.7052 63.8486 55.7856 63.7786 55.8685C63.6412 56.0311 63.5039 56.1937 63.3666 56.3564C63.0015 56.7887 62.6361 57.2208 62.2707 57.6529C61.9762 58.0012 61.9762 58.0012 61.684 58.3514C61.4804 58.586 61.4804 58.586 61.2455 58.8164C60.6659 59.4094 60.4615 59.827 60.4497 60.6559C60.4525 60.7805 60.4554 60.9051 60.4583 61.0334C60.4573 61.2347 60.4573 61.2347 60.4563 61.44C60.4551 61.8813 60.4603 62.3223 60.4652 62.7635C60.465 63.0722 60.4644 63.3809 60.4632 63.6896C60.4612 64.5015 60.4641 65.3132 60.4685 66.125C60.4754 67.4221 60.4778 68.719 60.4746 70.016C60.4747 70.467 60.4786 70.9177 60.4828 71.3686C60.4903 73.641 60.1284 75.2641 58.5859 77.0196C57.3999 78.1351 55.8758 79.0368 54.2128 79.0392C54.0422 79.0402 53.8716 79.0412 53.6959 79.0422C53.51 79.0417 53.3241 79.0413 53.1326 79.0408C52.9339 79.0415 52.7352 79.0422 52.5306 79.0429C51.98 79.0447 51.4295 79.0447 50.879 79.0443C50.2848 79.0443 49.6907 79.046 49.0966 79.0474C47.9328 79.0499 46.7691 79.0508 45.6053 79.0509C44.6591 79.0511 43.7129 79.0517 42.7666 79.0527C40.0828 79.0554 37.399 79.0568 34.7152 79.0565C34.4982 79.0565 34.4982 79.0565 34.2768 79.0565C34.0596 79.0565 34.0596 79.0565 33.8379 79.0565C31.4915 79.0563 29.1452 79.0593 26.7988 79.0635C24.3885 79.0679 21.9781 79.07 19.5678 79.0698C18.215 79.0697 16.8623 79.0705 15.5095 79.0738C14.3575 79.0766 13.2056 79.0772 12.0536 79.0752C11.4662 79.0742 10.8789 79.0741 10.2915 79.0768C9.65365 79.0796 9.01592 79.0777 8.37808 79.0754C8.1939 79.0769 8.00972 79.0785 7.81996 79.0801C5.89151 79.0645 4.42653 78.4426 2.98041 77.1719C1.75245 75.8665 0.949964 74.3195 0.960749 72.5086C0.960215 72.3944 0.959681 72.2801 0.95913 72.1624C0.957712 71.7793 0.958462 71.3962 0.959202 71.013C0.958633 70.7357 0.957932 70.4583 0.95711 70.181C0.955245 69.4186 0.955287 68.6561 0.955646 67.8937C0.955708 67.0715 0.954027 66.2493 0.952581 65.4272C0.95005 63.8162 0.949213 62.2052 0.949043 60.5942C0.948899 59.2846 0.948273 57.9751 0.947306 56.6656C0.944623 52.9533 0.943218 49.241 0.943446 45.5287C0.943459 45.3285 0.943471 45.1283 0.943483 44.9221C0.943496 44.7217 0.943508 44.5212 0.943521 44.3148C0.943645 41.067 0.94073 37.8192 0.936433 34.5714C0.932057 31.237 0.929952 27.9026 0.930216 24.5681C0.930317 22.696 0.929479 20.8238 0.9262 18.9516C0.923427 17.3575 0.922763 15.7634 0.924832 14.1693C0.925828 13.3561 0.925843 12.5429 0.923201 11.7297C0.920806 10.9847 0.92124 10.2398 0.923897 9.49489C0.924365 9.22588 0.923811 8.95687 0.922111 8.68786C0.908707 6.41434 1.28935 4.73164 2.82807 2.9805C3.59284 2.26111 4.44538 1.70163 5.41791 1.30472C5.60361 1.22672 5.60361 1.22672 5.79307 1.14714C6.5193 0.948899 7.20012 0.956451 7.94964 0.958267ZM6.02729 6.63675C5.52941 7.38357 5.55115 8.06745 5.55066 8.95028C5.55039 9.05938 5.55012 9.16848 5.54985 9.28089C5.54914 9.64746 5.54951 10.014 5.54988 10.3806C5.5496 10.6457 5.54925 10.9107 5.54884 11.1758C5.5479 11.905 5.54793 12.6343 5.54811 13.3635C5.54814 14.1496 5.5473 14.9357 5.54657 15.7219C5.54531 17.2623 5.54489 18.8028 5.54481 20.3432C5.54473 21.5951 5.54442 22.8469 5.54394 24.0988C5.54259 27.6465 5.54189 31.1942 5.54201 34.7419C5.54201 34.9332 5.54202 35.1245 5.54202 35.3216C5.54203 35.5132 5.54204 35.7047 5.54204 35.9021C5.54211 39.0075 5.54065 42.1128 5.5385 45.2182C5.53631 48.4052 5.53526 51.5923 5.53539 54.7793C5.53544 56.5692 5.53502 58.3591 5.53338 60.149C5.532 61.6728 5.53166 63.1966 5.5327 64.7204C5.5332 65.498 5.5332 66.2757 5.53188 67.0533C5.53069 67.765 5.5309 68.4768 5.53223 69.1885C5.53247 69.4461 5.53219 69.7037 5.53134 69.9614C5.53027 70.3114 5.53107 70.6614 5.53234 71.0114C5.5323 71.2059 5.53227 71.4004 5.53224 71.6008C5.589 72.4127 5.70822 73.0186 6.24628 73.6394C7.03967 74.3167 7.6385 74.4485 8.65992 74.4493C8.81998 74.4498 8.98004 74.4503 9.14496 74.4508C9.31984 74.4506 9.49472 74.4503 9.6749 74.4501C9.86143 74.4504 10.048 74.4508 10.2401 74.4511C10.7575 74.4519 11.2748 74.4521 11.7921 74.4519C12.3502 74.4518 12.9082 74.4527 13.4663 74.4534C14.5595 74.4547 15.6527 74.4551 16.7459 74.4552C17.6345 74.4552 18.5231 74.4556 19.4117 74.456C21.9309 74.4574 24.45 74.4581 26.9692 74.458C27.173 74.458 27.173 74.458 27.3808 74.458C27.5167 74.458 27.6527 74.4579 27.7928 74.4579C29.9968 74.4579 32.2007 74.4593 34.4047 74.4615C36.6676 74.4637 38.9306 74.4647 41.1935 74.4646C42.464 74.4645 43.7345 74.465 45.005 74.4666C46.0867 74.468 47.1683 74.4683 48.25 74.4673C48.8018 74.4668 49.3536 74.4668 49.9054 74.4681C50.5037 74.4695 51.102 74.4686 51.7004 74.4674C51.9617 74.4686 51.9617 74.4686 52.2282 74.4698C53.7548 74.4743 53.7548 74.4743 55.0534 73.7537C55.7075 72.9874 55.8637 72.4036 55.861 71.4148C55.861 71.2044 55.861 71.2044 55.8609 70.9898C55.8602 70.8405 55.8594 70.6911 55.8586 70.5372C55.8584 70.3828 55.8581 70.2283 55.8579 70.0691C55.8571 69.5771 55.8552 69.0851 55.8532 68.5931C55.8524 68.2589 55.8517 67.9248 55.8511 67.5906C55.8494 66.7727 55.8469 65.9547 55.8437 65.1368C55.6484 65.2382 55.6484 65.2382 55.4491 65.3418C53.6601 66.2593 51.8297 67.0774 49.9865 67.8794C49.6362 68.0324 49.2864 68.1866 48.9372 68.3421C48.4257 68.5697 47.9128 68.7936 47.3993 69.0168C47.2449 69.0862 47.0904 69.1557 46.9313 69.2273C45.9028 69.6676 44.9029 69.9573 43.7994 69.6076C43.2778 69.3549 43.0427 69.0906 42.7516 68.5931C42.4924 67.6931 42.5716 66.9079 42.785 66.0058C42.8278 65.8227 42.8706 65.6395 42.9147 65.4509C42.9619 65.2555 43.009 65.0601 43.0575 64.8588C43.1066 64.653 43.1557 64.4471 43.2047 64.2413C43.3075 63.8104 43.4114 63.3798 43.5159 62.9494C43.6483 62.4031 43.7776 61.8562 43.906 61.309C44.0064 60.8834 44.1089 60.4584 44.2119 60.0334C44.2836 59.7357 44.3533 59.4376 44.423 59.1394C44.8431 57.433 45.4693 55.9131 46.6745 54.6155C46.8361 54.4344 46.9976 54.253 47.1589 54.0716C47.2372 53.9846 47.3155 53.8975 47.3962 53.8078C47.7066 53.4577 48 53.0949 48.2932 52.7303C48.9242 51.9526 49.5795 51.1979 50.2375 50.4431C50.8354 49.7558 51.4157 49.0564 51.9893 48.3486C52.4643 47.7703 52.9516 47.2028 53.4404 46.6362C53.5851 46.4684 53.7282 46.2992 53.8699 46.1288C54.0958 45.8713 54.3343 45.6249 54.5781 45.3842C55.6071 44.3348 56.0555 43.5194 56.0522 42.0057C56.0463 41.7812 56.0402 41.5567 56.0339 41.3323C56.0335 41.0903 56.0337 40.8484 56.0347 40.6064C56.0352 39.9558 56.0254 39.3056 56.0136 38.655C56.0031 37.9729 56.0021 37.2908 56.0002 36.6086C55.995 35.3196 55.9812 34.0309 55.9644 32.7419C55.9456 31.2734 55.9364 29.8049 55.928 28.3363C55.9106 25.3178 55.8811 22.2996 55.8437 19.2813C55.6908 19.2804 55.5379 19.2795 55.3803 19.2786C53.939 19.2699 52.4977 19.2588 51.0564 19.2454C50.3154 19.2386 49.5745 19.2326 48.8335 19.2285C48.1183 19.2245 47.4031 19.2184 46.688 19.2107C46.4152 19.2082 46.1425 19.2064 45.8697 19.2055C45.4874 19.204 45.1053 19.1997 44.7231 19.1948C44.5541 19.1951 44.5541 19.1951 44.3817 19.1955C43.7076 19.1832 43.2686 19.1016 42.7421 18.6719C42.2562 18.0346 42.2177 17.4661 42.2192 16.691C42.2177 16.5705 42.2161 16.45 42.2145 16.3259C42.2099 15.9294 42.2085 15.533 42.2071 15.1365C42.2046 14.8609 42.2018 14.5853 42.1989 14.3097C42.1916 13.5857 42.1871 12.8617 42.1831 12.1376C42.1785 11.3982 42.1715 10.6589 42.1646 9.91958C42.1515 8.46985 42.1412 7.02011 42.1327 5.57035C37.7842 5.56339 33.4356 5.558 29.087 5.55479C28.5735 5.55441 28.06 5.55401 27.5465 5.55361C27.4442 5.55353 27.342 5.55345 27.2367 5.55337C25.5819 5.55204 23.9271 5.54964 22.2723 5.54684C20.574 5.54399 18.8758 5.54232 17.1775 5.54168C16.2237 5.54128 15.27 5.54035 14.3162 5.53813C13.4185 5.53606 12.5209 5.53542 11.6232 5.53588C11.2937 5.5358 10.9642 5.53519 10.6348 5.53402C10.1848 5.53251 9.7349 5.53287 9.28495 5.53371C9.15469 5.53282 9.02442 5.53193 8.89021 5.53102C7.68715 5.53702 6.84783 5.67554 6.02729 6.63675ZM46.7031 6.63675C46.7031 9.30124 46.7031 11.9657 46.7031 14.711C49.4681 14.711 52.2331 14.711 55.082 14.711C54.4697 13.9967 53.8622 13.3143 53.1967 12.6543C53.1094 12.5673 53.0221 12.4803 52.9322 12.3907C52.4079 11.8718 51.8702 11.3798 51.3073 10.903C50.8205 10.4641 50.3633 9.99706 49.9023 9.53128C49.1658 8.78792 48.4236 8.06655 47.6171 7.39847C47.3155 7.1471 47.0138 6.89574 46.7031 6.63675ZM69.0976 35.2774C69.9902 36.4778 71.2045 37.3617 72.4492 38.1719C72.6976 37.9061 72.945 37.6394 73.1918 37.3721C73.2619 37.2973 73.332 37.2225 73.4043 37.1454C74.1478 36.3372 74.3495 35.8258 74.3255 34.74C74.2336 34.022 73.8671 33.62 73.3347 33.1636C71.3284 32.3611 70.2119 33.8118 69.0976 35.2774ZM65.8984 39.086C65.5853 39.4193 65.2883 39.7555 64.9938 40.1048C64.9053 40.2084 64.8168 40.3121 64.7255 40.4189C64.4554 40.7356 64.1866 41.0532 63.9179 41.3711C63.7698 41.5455 63.6216 41.7199 63.4734 41.8942C63.1306 42.2979 62.7892 42.7026 62.448 43.1076C62.2371 43.3576 62.0255 43.607 61.8137 43.8562C61.1687 44.6156 60.5273 45.3769 59.8998 46.1509C59.265 46.9314 58.6067 47.6897 57.9456 48.4479C57.3524 49.1298 56.777 49.8236 56.2097 50.5272C55.9216 50.8748 55.629 51.215 55.3301 51.5532C55.1955 51.7059 55.1955 51.7059 55.0582 51.8617C54.8811 52.0619 54.7032 52.2613 54.5244 52.4598C54.0868 52.9549 53.7536 53.3703 53.5585 54.0157C54.619 54.8866 55.6842 55.7508 56.7578 56.6055C57.2974 56.1982 57.7202 55.7837 58.1384 55.2535C58.6761 54.5828 59.2243 53.9241 59.7856 53.273C60.3818 52.5802 60.9762 51.8859 61.5661 51.1878C61.6346 51.1067 61.7031 51.0256 61.7737 50.9421C61.9116 50.7788 62.0496 50.6155 62.1875 50.4522C62.4656 50.1228 62.7441 49.7937 63.0226 49.4647C63.1622 49.2998 63.3017 49.1348 63.4412 48.9699C63.7937 48.5532 64.1465 48.1367 64.4999 47.7208C65.2567 46.8294 66.0038 45.9319 66.7398 45.0232C67.0341 44.67 67.3326 44.3236 67.6372 43.9794C67.7275 43.8771 67.8178 43.7747 67.9108 43.6693C68.0895 43.4674 68.2691 43.2662 68.4498 43.066C68.5316 42.9735 68.6134 42.881 68.6977 42.7857C68.7711 42.7038 68.8446 42.6219 68.9203 42.5375C69.1197 42.2537 69.1865 42.0146 69.2499 41.6758C68.9136 41.3869 68.5771 41.0981 68.2407 40.8094C68.0996 40.6881 68.0996 40.6881 67.9556 40.5645C67.7678 40.4033 67.5797 40.2425 67.3913 40.0819C67.2113 39.9281 67.032 39.7734 66.8536 39.6176C66.4361 39.2134 66.4361 39.2134 65.8984 39.086ZM49.9308 57.929C48.739 59.3598 48.5795 61.6828 48.2265 63.461C49.0824 63.1932 49.9043 62.8551 50.7307 62.5088C50.8702 62.4525 51.0097 62.3961 51.1535 62.338C52.1704 61.9102 53.1145 61.4545 53.6252 60.4331C53.6676 60.2729 53.6676 60.2729 53.7109 60.1094C52.8689 59.4179 52.0257 58.7279 51.1782 58.0432C51.0537 57.9425 50.9292 57.8418 50.8009 57.738C50.3287 57.3814 50.41 57.4711 49.9308 57.929Z" fill="black"/>
<path d="M13.0546 42.2261C13.2114 42.2253 13.3681 42.2244 13.5297 42.2236C14.0557 42.2214 14.5817 42.2225 15.1078 42.2236C15.4847 42.2227 15.8615 42.2217 16.2384 42.2204C17.1562 42.218 18.074 42.2177 18.9918 42.2185C19.7378 42.2191 20.4838 42.2189 21.2298 42.218C21.336 42.2179 21.4422 42.2178 21.5516 42.2177C21.7673 42.2175 21.983 42.2172 22.1987 42.217C24.2215 42.2149 26.2443 42.2157 28.2671 42.2175C30.1175 42.219 31.9679 42.217 33.8183 42.2134C35.7185 42.2097 37.6187 42.2082 39.5189 42.2092C40.5857 42.2097 41.6524 42.2094 42.7192 42.2067C43.7221 42.2043 44.7251 42.205 45.728 42.2078C46.0964 42.2084 46.4648 42.2079 46.8331 42.2063C47.3355 42.2043 47.8377 42.2061 48.3401 42.2088C48.4863 42.2073 48.6325 42.2059 48.7831 42.2043C49.6389 42.2138 50.1408 42.3164 50.8164 42.8945C51.4343 43.6901 51.3913 44.5175 51.2734 45.4844C50.9427 46.1826 50.5993 46.5355 49.9023 46.8554C49.388 46.9228 48.8775 46.9177 48.3594 46.9145C48.1242 46.9157 48.1242 46.9157 47.8843 46.917C47.3583 46.9192 46.8323 46.9181 46.3062 46.917C45.9293 46.9179 45.5525 46.9189 45.1756 46.9202C44.2578 46.9226 43.34 46.9229 42.4222 46.9221C41.6762 46.9215 40.9302 46.9217 40.1842 46.9225C40.078 46.9227 39.9719 46.9228 39.8625 46.9229C39.6467 46.9231 39.431 46.9234 39.2153 46.9236C37.1925 46.9257 35.1697 46.9248 33.1469 46.9231C31.2965 46.9216 29.4461 46.9236 27.5957 46.9272C25.6955 46.9309 23.7953 46.9324 21.8951 46.9314C20.8283 46.9308 19.7616 46.9312 18.6948 46.9338C17.6919 46.9363 16.6889 46.9356 15.686 46.9327C15.3176 46.9322 14.9492 46.9326 14.5809 46.9342C14.0785 46.9362 13.5763 46.9345 13.0739 46.9318C12.8547 46.934 12.8547 46.934 12.6309 46.9362C11.7751 46.9268 11.2732 46.8241 10.5976 46.2461C9.97968 45.4504 10.0227 44.6231 10.1406 43.6562C10.7787 42.3092 11.7011 42.2176 13.0546 42.2261Z" fill="black"/>
<path d="M13.0546 28.5151C13.2114 28.5143 13.3681 28.5135 13.5297 28.5127C14.0557 28.5105 14.5817 28.5116 15.1078 28.5126C15.4847 28.5118 15.8615 28.5107 16.2384 28.5095C17.1562 28.507 18.074 28.5067 18.9918 28.5075C19.7378 28.5081 20.4838 28.5079 21.2298 28.5071C21.336 28.507 21.4422 28.5069 21.5516 28.5068C21.7673 28.5065 21.983 28.5063 22.1987 28.5061C24.2215 28.504 26.2443 28.5048 28.2671 28.5065C30.1175 28.5081 31.9679 28.5061 33.8183 28.5024C35.7185 28.4987 37.6187 28.4973 39.5189 28.4983C40.5857 28.4988 41.6524 28.4985 42.7192 28.4958C43.7221 28.4933 44.7251 28.494 45.728 28.4969C46.0964 28.4975 46.4648 28.497 46.8331 28.4954C47.3355 28.4934 47.8377 28.4951 48.3401 28.4978C48.4863 28.4964 48.6325 28.4949 48.7831 28.4934C49.6389 28.5029 50.1408 28.6055 50.8164 29.1836C51.4343 29.9792 51.3913 30.8066 51.2734 31.7734C50.9427 32.4716 50.5993 32.8246 49.9023 33.1445C49.388 33.2118 48.8775 33.2068 48.3594 33.2036C48.1242 33.2048 48.1242 33.2048 47.8843 33.2061C47.3583 33.2082 46.8323 33.2071 46.3062 33.2061C45.9293 33.2069 45.5525 33.208 45.1756 33.2092C44.2578 33.2117 43.34 33.212 42.4222 33.2112C41.6762 33.2106 40.9302 33.2108 40.1842 33.2116C40.078 33.2117 39.9719 33.2118 39.8625 33.2119C39.6467 33.2122 39.431 33.2124 39.2153 33.2126C37.1925 33.2147 35.1697 33.2139 33.1469 33.2122C31.2965 33.2107 29.4461 33.2126 27.5957 33.2163C25.6955 33.22 23.7953 33.2214 21.8951 33.2204C20.8283 33.2199 19.7616 33.2202 18.6948 33.2229C17.6919 33.2254 16.6889 33.2247 15.686 33.2218C15.3176 33.2212 14.9492 33.2217 14.5809 33.2233C14.0785 33.2253 13.5763 33.2236 13.0739 33.2209C12.8547 33.2231 12.8547 33.2231 12.6309 33.2253C11.7751 33.2158 11.2732 33.1132 10.5976 32.5351C9.97968 31.7395 10.0227 30.9122 10.1406 29.9453C10.7787 28.5982 11.7011 28.5067 13.0546 28.5151Z" fill="black"/>
<path d="M12.534 55.9371C12.6348 55.9362 12.7356 55.9354 12.8395 55.9346C13.176 55.9324 13.5125 55.9335 13.8491 55.9346C14.0909 55.9337 14.3327 55.9326 14.5745 55.9314C15.2304 55.9287 15.8864 55.9288 16.5423 55.9297C17.0902 55.9302 17.638 55.9292 18.1858 55.9283C19.4783 55.9262 20.7707 55.9264 22.0632 55.9282C23.3961 55.9299 24.729 55.9278 26.062 55.9237C27.2069 55.9203 28.3518 55.9193 29.4967 55.9202C30.1803 55.9207 30.8638 55.9203 31.5474 55.9177C32.1903 55.9154 32.8331 55.916 33.4759 55.9188C33.7116 55.9194 33.9473 55.9189 34.183 55.9173C34.5053 55.9153 34.8273 55.9171 35.1496 55.9198C35.3298 55.9198 35.5099 55.9198 35.6956 55.9199C36.4422 56.0347 36.9273 56.3761 37.3869 56.9679C37.705 57.6914 37.6568 58.4218 37.5624 59.1953C37.2301 59.897 36.8796 60.2261 36.1913 60.5664C35.7147 60.6244 35.7147 60.6244 35.169 60.6255C35.0682 60.6263 34.9674 60.6271 34.8635 60.628C34.5269 60.6301 34.1904 60.6291 33.8539 60.628C33.6121 60.6288 33.3703 60.6299 33.1285 60.6311C32.4726 60.6339 31.8166 60.6337 31.1607 60.6328C30.6128 60.6324 30.065 60.6333 29.5172 60.6342C28.2247 60.6364 26.9323 60.6361 25.6398 60.6344C24.3068 60.6326 22.9739 60.6348 21.641 60.6389C20.4961 60.6422 19.3512 60.6432 18.2063 60.6423C17.5227 60.6418 16.8392 60.6422 16.1556 60.6448C15.5127 60.6472 14.8699 60.6466 14.2271 60.6437C13.9914 60.6431 13.7557 60.6436 13.52 60.6452C13.1977 60.6472 12.8756 60.6455 12.5534 60.6428C12.3732 60.6427 12.1931 60.6427 12.0074 60.6427C11.2608 60.5278 10.7757 60.1864 10.3161 59.5946C9.99801 58.8711 10.0462 58.1407 10.1406 57.3672C10.6571 56.2768 11.359 55.9395 12.534 55.9371Z" fill="black"/>
<path d="M12.534 14.6519C12.6348 14.6511 12.7356 14.6503 12.8395 14.6494C13.176 14.6472 13.5125 14.6483 13.8491 14.6494C14.0909 14.6485 14.3327 14.6475 14.5745 14.6462C15.2304 14.6435 15.8864 14.6437 16.5423 14.6445C17.0902 14.645 17.638 14.6441 18.1858 14.6432C19.4783 14.641 20.7707 14.6413 22.0632 14.643C23.3961 14.6448 24.729 14.6426 26.062 14.6385C27.2069 14.6352 28.3518 14.6341 29.4967 14.635C30.1803 14.6355 30.8638 14.6352 31.5474 14.6326C32.1903 14.6302 32.8331 14.6308 33.4759 14.6337C33.7116 14.6342 33.9473 14.6338 34.183 14.6322C34.5053 14.6302 34.8273 14.6319 35.1496 14.6346C35.3298 14.6346 35.5099 14.6347 35.6956 14.6347C36.4422 14.7495 36.9273 15.091 37.3869 15.6827C37.705 16.4063 37.6568 17.1366 37.5624 17.9102C37.2301 18.6118 36.8796 18.941 36.1913 19.2813C35.7147 19.3392 35.7147 19.3392 35.169 19.3403C35.0682 19.3412 34.9674 19.342 34.8635 19.3428C34.5269 19.345 34.1904 19.3439 33.8539 19.3428C33.6121 19.3437 33.3703 19.3448 33.1285 19.346C32.4726 19.3487 31.8166 19.3485 31.1607 19.3477C30.6128 19.3472 30.065 19.3481 29.5172 19.3491C28.2247 19.3512 26.9323 19.351 25.6398 19.3492C24.3068 19.3475 22.9739 19.3496 21.641 19.3537C20.4961 19.3571 19.3512 19.3581 18.2063 19.3572C17.5227 19.3567 16.8392 19.357 16.1556 19.3597C15.5127 19.362 14.8699 19.3614 14.2271 19.3586C13.9914 19.358 13.7557 19.3585 13.52 19.3601C13.1977 19.3621 12.8756 19.3603 12.5534 19.3576C12.3732 19.3576 12.1931 19.3576 12.0074 19.3575C11.2608 19.2427 10.7757 18.9012 10.3161 18.3095C9.99801 17.5859 10.0462 16.8556 10.1406 16.0821C10.6571 14.9916 11.359 14.6543 12.534 14.6519Z" fill="black"/>
</svg>
