<svg width="80" height="79" viewBox="0 0 80 79" fill="none" xmlns="http://www.w3.org/2000/svg">
<path d="M7.80688 0.00118745C7.95447 0.000927118 8.10207 0.000666785 8.25414 0.000398564C8.74817 -0.000102854 9.24216 0.00157208 9.73619 0.00323773C10.0905 0.00332368 10.4449 0.00327542 10.7992 0.0031029C11.7611 0.00301543 12.7229 0.00480782 13.6847 0.00693403C14.5881 0.00864484 15.4915 0.00895202 16.3948 0.00926546C18.1838 0.00993187 19.9728 0.0119584 21.7618 0.014842C23.4994 0.0176399 25.237 0.0197961 26.9745 0.0210905C27.1353 0.0212106 27.1353 0.0212106 27.2992 0.0213331C27.8368 0.0217307 28.3744 0.0221158 28.9119 0.0224945C33.3697 0.0256518 37.8274 0.0310398 42.2852 0.0378275C42.2855 0.123491 42.2859 0.209154 42.2863 0.297413C42.2953 2.38269 42.3068 4.46795 42.3211 6.5532C42.3279 7.56162 42.3339 8.57003 42.3379 9.57847C42.3419 10.5514 42.348 11.5244 42.3557 12.4974C42.3583 12.8688 42.36 13.2402 42.361 13.6116C42.3624 14.1314 42.3667 14.6511 42.3716 15.1709C42.3713 15.4018 42.3713 15.4018 42.371 15.6374C42.3839 16.6725 42.3839 16.6725 42.8945 17.5574C43.5931 18.0721 44.2701 18.1838 45.1226 18.1908C45.2596 18.1923 45.3965 18.1938 45.5375 18.1954C45.6858 18.1962 45.8341 18.1971 45.9868 18.198C46.2232 18.2003 46.2232 18.2003 46.4645 18.2026C46.9846 18.2074 47.5047 18.2112 48.0248 18.2149C48.3858 18.2181 48.7468 18.2213 49.1077 18.2245C50.0572 18.2329 51.0066 18.2405 51.9561 18.2478C52.9252 18.2555 53.8943 18.264 54.8633 18.2724C56.7644 18.2887 58.6654 18.3042 60.5664 18.3191C60.6018 19.8791 60.6288 21.4391 60.6453 22.9994C60.6533 23.7241 60.664 24.4485 60.6813 25.1731C60.698 25.8735 60.707 26.5736 60.7109 27.2741C60.7137 27.5402 60.7192 27.8063 60.7275 28.0723C60.7683 29.44 60.7881 30.4225 59.837 31.4707C59.5744 31.7102 59.3097 31.9475 59.043 32.1824C58.8158 32.448 58.5929 32.7173 58.3765 32.9917C57.8535 33.639 57.3196 34.2749 56.7769 34.9055C56.1807 35.5984 55.5863 36.2925 54.9963 36.9907C54.8936 37.1123 54.8936 37.1123 54.7887 37.2364C54.6508 37.3997 54.5129 37.563 54.375 37.7263C54.0968 38.0557 53.8183 38.3848 53.5398 38.7138C53.4003 38.8787 53.2607 39.0436 53.1212 39.2086C52.7688 39.6253 52.416 40.0418 52.0625 40.4577C51.418 41.2168 50.777 41.9776 50.1499 42.7512C49.5151 43.5317 48.8568 44.29 48.1957 45.0482C47.714 45.6019 47.2411 46.1607 46.7793 46.7312C46.2346 47.404 45.6723 48.0592 45.1035 48.7117C44.2984 49.6369 43.5006 50.5656 42.7422 51.53C42.602 51.7062 42.602 51.7062 42.4589 51.8859C40.6768 54.2594 40.1436 57.1558 39.4857 59.9835C39.3836 60.4203 39.2795 60.8566 39.1753 61.2929C38.9597 62.1962 38.7455 63.0998 38.5344 64.0041C38.4973 64.1625 38.4603 64.321 38.4221 64.4842C37.9508 66.6608 38.1633 68.6655 39.3906 70.573C40.347 71.8148 41.9227 72.9107 43.5039 73.1628C43.9126 73.1892 44.3138 73.205 44.7227 73.2104C44.8808 73.2171 44.8808 73.2171 45.0422 73.2238C47.0561 73.2476 49.0129 72.1029 50.8164 71.3061C51.0831 71.1888 51.3499 71.0715 51.6166 70.9542C52.1353 70.726 52.6537 70.4973 53.172 70.2682C53.7386 70.018 54.3067 69.7712 54.8755 69.5262C56.8836 68.6556 59.0101 67.5755 60.2617 65.698C60.3623 65.698 60.4628 65.698 60.5664 65.698C60.574 66.4673 60.5795 67.2365 60.5831 68.0058C60.5847 68.2667 60.5867 68.5276 60.5894 68.7885C60.6169 71.557 60.4458 74.0724 58.4622 76.2014C57.3209 77.2644 55.7947 78.0747 54.2129 78.077C54.0423 78.078 53.8717 78.079 53.6959 78.08C53.51 78.0795 53.3242 78.0791 53.1327 78.0786C52.934 78.0793 52.7353 78.08 52.5306 78.0807C51.9801 78.0825 51.4296 78.0825 50.879 78.0821C50.2849 78.0821 49.6908 78.0837 49.0966 78.0852C47.9329 78.0877 46.7691 78.0886 45.6054 78.0887C44.6592 78.0889 43.7129 78.0895 42.7667 78.0905C40.0829 78.0931 37.3991 78.0946 34.7152 78.0943C34.4983 78.0943 34.4983 78.0943 34.2769 78.0943C34.0596 78.0943 34.0596 78.0943 33.838 78.0942C31.4916 78.0941 29.1452 78.097 26.7988 78.1013C24.3885 78.1057 21.9782 78.1078 19.5679 78.1076C18.2151 78.1075 16.8624 78.1083 15.5096 78.1116C14.3576 78.1143 13.2056 78.115 12.0536 78.1129C11.4663 78.1119 10.8789 78.1119 10.2915 78.1146C9.65371 78.1174 9.01598 78.1155 8.37814 78.1132C8.19396 78.1147 8.00979 78.1163 7.82003 78.1179C5.89157 78.1023 4.42659 77.4804 2.98047 76.2097C1.69646 74.8447 0.949089 73.2715 0.961237 71.3796C0.960505 71.2087 0.960505 71.2087 0.959757 71.0343C0.958494 70.6531 0.959394 70.2719 0.960289 69.8907C0.959829 69.6144 0.959237 69.338 0.958523 69.0617C0.956955 68.3028 0.95729 67.5439 0.957942 66.785C0.958317 65.9663 0.956945 65.1477 0.955803 64.3291C0.95386 62.7254 0.953588 61.1217 0.953944 59.518C0.954216 58.2145 0.95395 56.911 0.953301 55.6075C0.95321 55.4221 0.95312 55.2366 0.953026 55.0455C0.952842 54.6688 0.952657 54.2921 0.952471 53.9153C0.950814 50.3814 0.951144 46.8474 0.952073 43.3134C0.95286 40.0803 0.951146 36.8472 0.948249 33.6141C0.945298 30.2947 0.944039 26.9752 0.944612 23.6558C0.944903 21.7921 0.944522 19.9283 0.94237 18.0646C0.940556 16.4779 0.94034 14.8912 0.942186 13.3045C0.943084 12.495 0.943248 11.6855 0.941424 10.876C0.939772 10.1347 0.940239 9.39335 0.942377 8.652C0.942781 8.38412 0.942418 8.11624 0.941199 7.84837C0.931441 5.54321 1.22844 3.73571 2.8442 1.97307C3.61441 1.24785 4.44078 0.743336 5.41797 0.342515C5.5461 0.289831 5.67422 0.237146 5.80622 0.182865C6.48484 -0.00431982 7.10636 -0.00334302 7.80688 0.00118745ZM10.9309 14.4248C10.3309 15.1276 10.2251 15.5145 10.2448 16.4136C10.3159 16.9773 10.5254 17.292 10.9023 17.7097C11.6792 18.2874 12.4298 18.3379 13.3757 18.3405C13.567 18.3413 13.7584 18.3422 13.9555 18.3431C14.1664 18.3433 14.3773 18.3435 14.5882 18.3436C14.8112 18.3443 15.0343 18.3451 15.2573 18.3459C15.8623 18.3479 16.4673 18.3489 17.0723 18.3496C17.4506 18.35 17.829 18.3506 18.2074 18.3513C19.3925 18.3534 20.5776 18.3549 21.7626 18.3555C23.1284 18.3562 24.4942 18.3588 25.8599 18.3632C26.9171 18.3665 27.9743 18.3681 29.0315 18.3683C29.6622 18.3684 30.2929 18.3693 30.9236 18.3721C31.5174 18.3746 32.111 18.3749 32.7048 18.3736C32.9218 18.3734 33.1389 18.3741 33.356 18.3756C35.0556 18.3949 35.0556 18.3949 36.6484 17.862C37.3479 17.1451 37.4642 16.6328 37.453 15.6596C37.3901 15.0906 37.1803 14.7787 36.8008 14.3581C36.0231 13.7798 35.2723 13.7298 34.3254 13.7284C34.1336 13.7277 33.9418 13.7271 33.7442 13.7264C33.5329 13.7265 33.3215 13.7265 33.1101 13.7266C32.8866 13.7262 32.6631 13.7257 32.4395 13.7251C31.8333 13.7237 31.2271 13.7234 30.6208 13.7233C30.2418 13.7232 29.8628 13.7229 29.4839 13.7224C28.161 13.721 26.8381 13.7204 25.5152 13.7205C24.2832 13.7206 23.0512 13.719 21.8192 13.7166C20.7604 13.7146 19.7017 13.7138 18.643 13.7139C18.0111 13.7139 17.3792 13.7135 16.7473 13.7119C16.1528 13.7104 15.5584 13.7104 14.9639 13.7115C14.7462 13.7117 14.5285 13.7113 14.3108 13.7104C12.4936 13.6431 12.4936 13.6431 10.9309 14.4248ZM10.5977 28.6785C10.165 29.3274 10.1969 29.8971 10.293 30.6589C10.6271 31.3396 10.9765 31.7114 11.6641 32.03C12.3996 32.2322 13.1396 32.2045 13.8962 32.2038C14.1197 32.2044 14.1197 32.2044 14.3477 32.2051C14.8474 32.2064 15.3471 32.2067 15.8468 32.2069C16.2049 32.2076 16.563 32.2084 16.9211 32.2092C17.8944 32.2112 18.8676 32.2122 19.8409 32.2129C20.449 32.2133 21.057 32.2139 21.6651 32.2146C23.3496 32.2165 25.0342 32.218 26.7188 32.2186C26.8804 32.2186 26.8804 32.2186 27.0453 32.2187C27.2073 32.2187 27.2073 32.2187 27.3726 32.2188C27.5914 32.2188 27.8103 32.2189 28.0291 32.219C28.1377 32.219 28.2462 32.219 28.3581 32.2191C30.1165 32.2197 31.875 32.2223 33.6335 32.2259C35.4402 32.2295 37.247 32.2314 39.0537 32.2316C40.0676 32.2317 41.0815 32.2326 42.0954 32.2353C43.0492 32.2378 44.003 32.2382 44.9568 32.2368C45.3066 32.2367 45.6563 32.2374 46.0061 32.2389C46.4842 32.2408 46.9623 32.2399 47.4405 32.2383C47.5782 32.2396 47.716 32.2408 47.8579 32.2421C48.7467 32.2352 49.5511 32.1146 50.3594 31.7253C51.0589 31.0084 51.1752 30.496 51.1639 29.5229C51.101 28.9539 50.8913 28.642 50.5117 28.2214C49.5894 27.5356 48.6171 27.5898 47.5158 27.5917C47.292 27.5912 47.292 27.5912 47.0637 27.5906C46.5633 27.5897 46.0628 27.5898 45.5624 27.5899C45.2038 27.5895 44.8452 27.5889 44.4866 27.5884C43.5121 27.587 42.5376 27.5867 41.5631 27.5866C40.8524 27.5865 40.1416 27.586 39.4309 27.5855C37.5196 27.5843 35.6083 27.5837 33.697 27.5838C33.5343 27.5838 33.5343 27.5838 33.3682 27.5838C33.2596 27.5838 33.1509 27.5838 33.039 27.5838C31.2784 27.5839 29.5177 27.5824 27.7571 27.5803C25.9486 27.5781 24.1401 27.5771 22.3317 27.5772C21.3166 27.5772 20.3015 27.5768 19.2865 27.5752C18.3319 27.5737 17.3773 27.5737 16.4228 27.5748C16.0724 27.575 15.7221 27.5746 15.3717 27.5737C14.8934 27.5725 14.4152 27.5732 13.937 27.5744C13.7983 27.5736 13.6597 27.5728 13.5168 27.572C12.2905 27.5787 11.4357 27.6968 10.5977 28.6785ZM10.9309 41.999C10.3309 42.7018 10.2251 43.0887 10.2448 43.9878C10.3159 44.5515 10.5254 44.8662 10.9023 45.2839C11.7324 45.9011 12.5402 45.9124 13.5492 45.9147C13.6609 45.9151 13.7725 45.9156 13.8876 45.9161C14.261 45.9174 14.6343 45.9176 15.0077 45.9178C15.2758 45.9185 15.5438 45.9193 15.8119 45.9201C16.5396 45.9221 17.2674 45.9231 17.9951 45.9238C18.4501 45.9242 18.905 45.9249 19.36 45.9255C20.7842 45.9276 22.2084 45.9291 23.6326 45.9297C25.2752 45.9304 26.9177 45.933 28.5603 45.9375C29.8309 45.9408 31.1016 45.9423 32.3722 45.9425C33.1307 45.9427 33.8891 45.9435 34.6476 45.9463C35.3613 45.9488 36.075 45.9491 36.7888 45.9478C37.0501 45.9477 37.3114 45.9483 37.5727 45.9498C39.4422 45.9693 39.4422 45.9693 41.2188 45.4363C41.9182 44.7193 42.0346 44.207 42.0233 43.2338C41.9604 42.6649 41.7506 42.3529 41.3711 41.9324C40.5402 41.3145 39.7322 41.3039 38.7222 41.3026C38.6103 41.3023 38.4984 41.3019 38.3832 41.3016C38.0091 41.3006 37.635 41.3007 37.2609 41.3009C36.9923 41.3004 36.7238 41.2999 36.4552 41.2993C35.7262 41.298 34.9973 41.2976 34.2683 41.2975C33.8127 41.2974 33.3572 41.2971 32.9016 41.2967C31.312 41.2953 29.7225 41.2946 28.1329 41.2948C26.6516 41.2948 25.1704 41.2932 23.6891 41.2908C22.4169 41.2888 21.1447 41.288 19.8725 41.2881C19.1129 41.2882 18.3533 41.2877 17.5937 41.2861C16.8792 41.2846 16.1647 41.2846 15.4502 41.2857C15.1883 41.2859 14.9264 41.2855 14.6644 41.2846C14.3063 41.2834 13.9481 41.2841 13.5899 41.2853C13.3897 41.2852 13.1894 41.2851 12.9831 41.2851C12.1652 41.3407 11.5564 41.4569 10.9309 41.999ZM10.9309 55.7099C10.3309 56.4128 10.2251 56.7996 10.2448 57.6987C10.3159 58.2624 10.5254 58.5772 10.9023 58.9949C11.6225 59.5304 12.3223 59.6226 13.2022 59.6256C13.3551 59.6265 13.508 59.6274 13.6655 59.6283C13.9146 59.6285 13.9146 59.6285 14.1687 59.6288C14.3449 59.6295 14.5211 59.6303 14.7027 59.6311C15.2854 59.6333 15.8682 59.6343 16.451 59.6352C16.754 59.6358 17.057 59.6365 17.36 59.6372C18.2042 59.639 19.0484 59.6401 19.8926 59.6406C20.9816 59.6413 22.0706 59.644 23.1596 59.6484C24.0033 59.6517 24.847 59.6532 25.6908 59.6534C26.1938 59.6536 26.6967 59.6547 27.1997 59.6572C27.7616 59.6598 28.3234 59.6595 28.8853 59.6585C29.1325 59.6606 29.1325 59.6606 29.3848 59.6628C30.34 59.6575 31.2115 59.5794 32.0781 59.1472C32.7776 58.4302 32.8939 57.9179 32.8827 56.9448C32.8198 56.3758 32.61 56.0639 32.2305 55.6433C31.5094 55.1071 30.8095 55.0152 29.9286 55.0135C29.7753 55.0129 29.6219 55.0122 29.464 55.0116C29.2974 55.0116 29.1309 55.0117 28.9593 55.0118C28.7826 55.0113 28.6059 55.0108 28.4239 55.0102C27.8396 55.0088 27.2554 55.0085 26.6711 55.0083C26.3676 55.008 26.064 55.0076 25.7605 55.0072C24.8062 55.006 23.8519 55.0056 22.8976 55.0057C21.9148 55.0058 20.932 55.0042 19.9492 55.0018C19.1039 54.9998 18.2587 54.999 17.4134 54.9991C16.9092 54.9991 16.405 54.9985 15.9009 54.997C15.3382 54.9956 14.7756 54.996 14.2129 54.9969C14.047 54.9961 13.8811 54.9952 13.7102 54.9943C12.2081 54.9949 12.2081 54.9949 10.9309 55.7099Z" fill="black"/>
<path d="M62.3945 34.9246C63.0173 35.1819 63.4847 35.6185 63.9846 36.0576C64.1758 36.2235 64.367 36.3893 64.5583 36.5551C64.7031 36.681 64.7031 36.681 64.8508 36.8095C65.283 37.1842 65.7188 37.5545 66.1555 37.9238C66.2374 37.9932 66.3193 38.0625 66.4037 38.1339C66.9134 38.5643 67.4279 38.9884 67.9456 39.4092C68.5925 39.9356 69.2276 40.474 69.8594 41.0183C71.4078 42.3798 71.4078 42.3798 73.0586 43.6082C72.8263 44.3698 72.3706 44.8569 71.8494 45.4363C71.6689 45.6405 71.4886 45.8448 71.3084 46.0492C71.2182 46.1511 71.1279 46.253 71.0349 46.3579C70.6561 46.7884 70.2857 47.2256 69.9165 47.6643C69.8487 47.7447 69.7808 47.8251 69.7109 47.908C69.5746 48.0696 69.4384 48.2312 69.3022 48.3928C68.9553 48.8043 68.6075 49.215 68.2598 49.6257C68.1201 49.7908 67.9805 49.9558 67.8408 50.1208C65.3271 53.0916 65.3271 53.0916 65.1176 53.3392C64.9782 53.504 64.8388 53.6688 64.6994 53.8336C64.3469 54.2503 63.9941 54.6668 63.6407 55.0827C62.0609 56.9285 62.0609 56.9285 60.5664 58.8425C59.9512 58.6349 59.5695 58.364 59.1001 57.9189C58.5731 57.4308 58.0401 56.9613 57.4814 56.5098C56.8242 55.9778 56.1794 55.4337 55.5391 54.8816C54.7761 54.2242 54.0041 53.5802 53.2224 52.9452C52.0497 51.9841 50.8992 50.9955 49.75 50.0066C50.3877 49.1208 51.0788 48.2946 51.7919 47.4696C52.2621 46.9251 52.7245 46.376 53.1777 45.8171C53.8464 44.9939 54.5362 44.19 55.2278 43.3862C55.6674 42.8752 56.1038 42.3615 56.5388 41.8467C56.6073 41.7656 56.6758 41.6845 56.7464 41.601C56.8844 41.4377 57.0223 41.2744 57.1602 41.1111C57.5082 40.699 57.8567 40.2874 58.2051 39.8757C58.3447 39.7107 58.4844 39.5457 58.624 39.3806C59.8809 37.8953 61.1377 36.4099 62.3945 34.9246Z" fill="black"/>
<path d="M46.8556 53.3582C47.5534 53.7376 48.1125 54.2244 48.7027 54.7483C49.3769 55.3399 50.0527 55.9261 50.7498 56.4907C51.3911 57.01 52.0196 57.5421 52.6446 58.0808C53.2764 58.6252 53.9115 59.1636 54.5584 59.6899C54.69 59.7974 54.8216 59.9048 54.9571 60.0155C55.1882 60.204 55.4194 60.3923 55.6512 60.58C55.9291 60.8057 56.2056 61.0332 56.4818 61.261C56.5698 61.3318 56.6578 61.4026 56.7484 61.4756C56.9635 61.6542 57.1666 61.8471 57.3673 62.0417C57.3673 62.7943 56.8032 63.1953 56.3009 63.7175C56.1854 63.8389 56.1854 63.8389 56.0676 63.9627C54.4462 65.5014 51.8598 66.249 49.8358 67.1072C49.5462 67.2305 49.2567 67.3539 48.9672 67.4773C48.322 67.7524 47.6766 68.027 47.0307 68.3005C46.8172 68.3916 46.6041 68.4837 46.3916 68.5771C45.5126 68.9627 44.7354 69.0853 43.8003 68.8026C43.1743 68.5003 42.8031 68.0777 42.5388 67.4361C42.1875 66.1624 42.7403 64.6049 43.0392 63.3611C43.0842 63.1717 43.1291 62.9822 43.1755 62.7871C43.2705 62.3886 43.3661 61.9903 43.4624 61.5922C43.5844 61.0876 43.7033 60.5824 43.8213 60.0769C43.9362 59.5874 44.0545 59.0987 44.1723 58.6098C44.2137 58.4313 44.2552 58.2527 44.2979 58.0687C44.6678 56.5648 45.2075 55.063 46.3033 53.9294C46.4082 53.8187 46.513 53.7079 46.6211 53.5938C46.6985 53.516 46.7758 53.4383 46.8556 53.3582Z" fill="black"/>
<path d="M46.7031 0.342529C48.3233 0.612559 49.3487 1.38509 50.4623 2.56163C50.7654 2.87894 51.0718 3.16411 51.4067 3.44653C51.9488 3.90955 52.4487 4.40609 52.9492 4.91284C53.4435 5.41324 53.9363 5.90419 54.4727 6.36011C55.0952 6.8893 55.6619 7.46853 56.2352 8.04976C56.6619 8.48024 57.0941 8.89175 57.5576 9.2832C59.0449 10.5633 59.8754 11.8636 60.4141 13.7488C55.8895 13.7488 51.3648 13.7488 46.7031 13.7488C46.7031 9.32472 46.7031 4.90065 46.7031 0.342529Z" fill="black"/>
<path d="M76.1626 28.4119C77.4968 29.4331 78.4934 30.7455 78.9464 32.3883C79.2792 34.8948 78.8249 36.9335 77.2935 38.9776C76.9109 39.4662 76.5123 39.9404 76.1055 40.409C75.5879 40.1776 75.1889 39.8754 74.7534 39.514C74.6061 39.3918 74.4588 39.2697 74.3071 39.1438C73.6934 38.6282 73.086 38.1053 72.4788 37.5821C71.9417 37.1202 71.3996 36.666 70.8496 36.2195C70.2055 35.6967 69.5737 35.1614 68.9453 34.6199C67.7968 33.6305 66.626 32.6714 65.4414 31.7254C65.6167 30.4745 67.0657 29.2775 68.0027 28.5262C70.4186 26.8304 73.6899 26.7846 76.1626 28.4119Z" fill="black"/>
</svg>
