<svg width="89" height="93" viewBox="0 0 89 93" fill="none" xmlns="http://www.w3.org/2000/svg">
<path d="M66.3536 8.63916C69.3236 8.63916 72.2936 8.63916 75.3536 8.63916C75.3536 11.2792 75.3536 13.9192 75.3536 16.6392C76.4055 16.5567 77.4574 16.4742 78.5411 16.3892C82.9225 16.6765 84.3021 17.5876 87.3536 20.6392C88.7252 23.3824 88.496 25.5914 88.5147 28.6619C88.5243 29.9269 88.534 31.1919 88.5439 32.4953C88.5487 33.8831 88.553 35.2709 88.5567 36.6587C88.5625 38.0788 88.5682 39.4988 88.574 40.9189C88.5845 43.899 88.5904 46.879 88.5938 49.8591C88.5993 53.6724 88.6233 57.4853 88.6518 61.2984C88.6705 64.2333 88.6756 67.1681 88.6772 70.103C88.6802 71.5084 88.6882 72.9138 88.7014 74.3191C88.7185 76.2888 88.7147 78.2586 88.7101 80.2283C88.7155 81.908 88.7155 81.908 88.7211 83.6217C88.3068 87.0233 87.3826 88.9024 85.3536 91.6392C82.5625 93.0347 80.2541 92.7818 77.1314 92.8003C75.8231 92.8099 74.5148 92.8195 73.1669 92.8294C71.7317 92.8343 70.2966 92.8385 68.8614 92.8423C67.3941 92.848 65.9268 92.8538 64.4595 92.8596C61.3811 92.8701 58.3027 92.8759 55.2242 92.8794C51.2808 92.8849 47.3378 92.9089 43.3945 92.9374C40.3627 92.956 37.3311 92.9612 34.2993 92.9627C32.8456 92.9658 31.3919 92.9738 29.9383 92.9869C27.9038 93.004 25.8691 93.0003 23.8346 92.9956C22.0982 93.0011 22.0982 93.0011 20.3268 93.0067C17.0343 92.5997 15.6758 91.9723 13.3536 89.6392C12.1742 86.1009 12.2407 83.2977 12.256 79.5649C12.2574 78.8811 12.2588 78.1973 12.2602 77.4927C12.2658 75.3123 12.2784 73.132 12.2911 70.9517C12.2961 69.4718 12.3007 67.992 12.3048 66.5122C12.3158 62.8878 12.3331 59.2635 12.3536 55.6392C15.3236 56.2992 18.2936 56.9592 21.3536 57.6392C21.3536 66.2192 21.3536 74.7992 21.3536 83.6392C40.4936 83.6392 59.6336 83.6392 79.3536 83.6392C79.3536 70.1092 79.3536 56.5792 79.3536 42.6392C70.7736 42.6392 62.1936 42.6392 53.3536 42.6392C55.3336 38.1842 55.3336 38.1842 57.3536 33.6392C64.6136 33.6392 71.8736 33.6392 79.3536 33.6392C79.3536 30.9992 79.3536 28.3592 79.3536 25.6392C72.4236 25.6392 65.4936 25.6392 58.3536 25.6392C57.8586 21.1842 57.8586 21.1842 57.3536 16.6392C60.3236 16.6392 63.2936 16.6392 66.3536 16.6392C66.3536 13.9992 66.3536 11.3592 66.3536 8.63916Z" fill="#FC2230"/>
<path d="M37.8536 2.6391C44.1503 6.28457 48.1103 11.7684 50.3536 18.6391C51.3828 27.5113 50.9023 35.3831 45.3536 42.6391C39.5537 48.2519 33.7745 50.9222 25.6661 51.0766C17.9329 50.9389 11.9581 49.3638 6.47862 43.7016C0.28621 35.842 -0.670422 28.5238 0.353621 18.6391C2.48554 11.2121 6.65911 6.39208 13.3536 2.6391C20.8559 -0.992634 30.3006 -0.764924 37.8536 2.6391ZM12.5411 15.6391C9.2432 20.162 8.79147 24.1633 9.35362 29.6391C11.2122 34.905 13.9568 37.4331 18.3536 40.6391C23.3344 42.2994 27.6564 42.2381 32.5411 40.5141C36.7741 37.6921 39.7127 34.5618 41.3536 29.6391C41.7219 24.0231 41.5692 20.4624 38.3536 15.6391C34.4213 11.6638 31.209 9.76076 25.5411 9.3891C19.9457 9.49158 16.1988 11.438 12.5411 15.6391Z" fill="#FC2230"/>
<path d="M28.3535 13.6392C30.3335 14.2992 32.3135 14.9592 34.3535 15.6392C33.0202 18.9725 31.6868 22.3058 30.3535 25.6392C32.8285 27.6192 35.3535 29.6392 35.3535 29.6392L33.3535 32.6392L30.3535 35.6392C30.3535 35.6392 24.4135 29.6992 21.3535 26.6392C22.7735 23.0892 25.9785 17.3267 25.9785 17.3267C25.9785 17.3267 26.8705 15.9319 27.3301 15.2134C27.8367 14.4341 27.8367 14.4341 28.3535 13.6392Z" fill="#FC2230"/>
</svg>
