<svg width="124" height="64" viewBox="0 0 124 64" fill="none" xmlns="http://www.w3.org/2000/svg">
<path d="M89.414 0.888472C89.8534 0.887015 89.8534 0.887015 90.3017 0.885528C90.9197 0.884838 91.5378 0.886703 92.1558 0.890952C93.1004 0.896388 94.0445 0.891 94.9891 0.884505C95.5904 0.885176 96.1918 0.886478 96.7932 0.888472C97.0749 0.886417 97.3566 0.884361 97.6469 0.882243C99.212 0.901194 100.172 0.976988 101.356 2.03899C102.4 3.47931 102.409 4.80358 102.407 6.53567C102.408 6.76132 102.408 6.98696 102.409 7.21945C102.411 7.97708 102.412 8.7347 102.412 9.49234C102.413 10.0349 102.415 10.5775 102.416 11.1201C102.419 12.5953 102.421 14.0705 102.422 15.5457C102.423 16.4671 102.424 17.3885 102.425 18.31C102.428 21.1923 102.431 24.0747 102.432 26.957C102.433 30.2854 102.437 33.6138 102.445 36.9421C102.45 39.5142 102.453 42.0863 102.453 44.6584C102.453 46.1949 102.455 47.7314 102.459 49.2679C102.464 50.7132 102.464 52.1585 102.462 53.6038C102.462 54.1341 102.463 54.6644 102.465 55.1947C102.469 55.919 102.467 56.6431 102.465 57.3674C102.468 57.6817 102.468 57.6817 102.471 58.0023C102.456 59.698 102.116 60.8847 100.959 62.183C100.097 62.9343 99.6825 63.0094 98.5634 63.0214C98.2989 63.0247 98.0344 63.0279 97.7619 63.0313C97.3315 63.0341 97.3315 63.0341 96.8924 63.037C96.598 63.039 96.3037 63.0411 96.0004 63.0432C95.3763 63.0467 94.7522 63.0494 94.128 63.0514C93.1745 63.0558 92.2212 63.0669 91.2678 63.0781C90.6618 63.0807 90.0558 63.0829 89.4498 63.0846C89.1649 63.089 88.88 63.0935 88.5864 63.0981C87.0587 63.0938 86.0044 63.0755 84.8517 61.9609C83.8758 60.5485 83.689 59.5376 83.7071 57.8418C83.7055 57.6114 83.7039 57.3809 83.7023 57.1435C83.6982 56.3741 83.7014 55.605 83.7046 54.8356C83.7033 54.2829 83.7014 53.7302 83.6992 53.1775C83.6946 51.6782 83.6964 50.179 83.6996 48.6797C83.7022 47.1102 83.6998 45.5407 83.6982 43.9712C83.6964 41.3356 83.6988 38.7 83.7036 36.0644C83.7092 33.0178 83.7074 29.9714 83.7018 26.9248C83.6972 24.3085 83.6965 21.6922 83.6992 19.0759C83.7008 17.5136 83.701 15.9512 83.6976 14.3889C83.6947 12.92 83.6967 11.4513 83.7026 9.9824C83.7039 9.4435 83.7035 8.9046 83.7013 8.36571C83.6985 7.62971 83.702 6.894 83.7071 6.15802C83.7048 5.94509 83.7025 5.73215 83.7002 5.51277C83.7195 4.06725 84.0269 3.2322 84.8517 2.03899C86.1987 0.744544 87.6502 0.8756 89.414 0.888472Z" fill="#4A90E2"/>
<path d="M25.4133 0.978493C25.6727 0.975234 25.9321 0.971975 26.1993 0.968617C26.6215 0.965804 26.6215 0.965804 27.0521 0.962934C27.3408 0.960884 27.6295 0.958835 27.927 0.956723C28.5392 0.953207 29.1513 0.950485 29.7635 0.94849C30.6986 0.944124 31.6335 0.932983 32.5686 0.921773C33.163 0.919202 33.7575 0.91704 34.3519 0.915326C34.7709 0.908658 34.7709 0.908658 35.1984 0.901855C36.7214 0.906164 37.7308 0.949013 38.8944 2.03906C39.9657 3.33623 40.0559 4.28312 40.039 5.89293C40.0406 6.12523 40.0422 6.35753 40.0438 6.59687C40.0479 7.37404 40.0447 8.15101 40.0415 8.92819C40.0428 9.48587 40.0447 10.0435 40.0469 10.6012C40.0515 12.1152 40.0497 13.6292 40.0465 15.1432C40.0439 16.7275 40.0463 18.3119 40.0479 19.8963C40.0499 22.7278 40.0467 25.5593 40.0415 28.3908C40.037 30.9564 40.0378 33.5219 40.0425 36.0875C40.0479 39.0687 40.0499 42.0498 40.0469 45.031C40.0453 46.6084 40.0451 48.1857 40.0485 49.7631C40.0514 51.2464 40.0494 52.7295 40.0435 54.2128C40.0422 54.757 40.0426 55.3012 40.0448 55.8454C40.0476 56.5886 40.0441 57.3316 40.039 58.0748C40.0413 58.2899 40.0436 58.505 40.0459 58.7266C40.0268 60.176 39.7271 61.0212 38.8944 62.2148C38.0203 62.9066 37.3725 63.0726 36.2696 63.0792C36.0052 63.0824 35.7408 63.0856 35.4684 63.0889C35.1854 63.0882 34.9024 63.0874 34.6108 63.0867C34.3175 63.088 34.0242 63.0893 33.722 63.0907C33.1025 63.0923 32.4829 63.092 31.8633 63.0898C30.9165 63.0877 29.9701 63.095 29.0233 63.103C28.4208 63.1034 27.8183 63.1033 27.2157 63.1025C26.9332 63.1054 26.6507 63.1082 26.3596 63.1112C24.7911 63.0971 23.8295 63.0268 22.6444 61.9609C21.6002 60.5206 21.5913 59.1963 21.5931 57.4642C21.5924 57.2386 21.5916 57.013 21.5909 56.7805C21.5887 56.0228 21.5883 55.2652 21.5879 54.5076C21.5867 53.965 21.5854 53.4224 21.5841 52.8798C21.5807 51.4046 21.5791 49.9294 21.578 48.4542C21.5772 47.5328 21.5762 46.6114 21.5751 45.69C21.5716 42.8076 21.5691 39.9253 21.5681 37.0429C21.567 33.7145 21.5626 30.3862 21.5552 27.0578C21.5497 24.4857 21.5471 21.9136 21.5468 19.3415C21.5465 17.805 21.545 16.2685 21.5405 14.732C21.5363 13.2867 21.5358 11.8414 21.538 10.3962C21.5382 9.86586 21.5371 9.33556 21.5346 8.80527C21.5314 8.08095 21.5328 7.35679 21.5355 6.63247C21.5334 6.42297 21.5314 6.21347 21.5293 5.99763C21.5438 4.30195 21.8839 3.11523 23.0412 1.81689C23.8956 1.07198 24.3047 0.990603 25.4133 0.978493Z" fill="#4A90E2"/>
<path d="M43.4648 23.6211C55.6143 23.6211 67.7637 23.6211 80.2812 23.6211C80.2812 29.6539 80.2812 35.6867 80.2812 41.9023C68.1318 41.9023 55.9824 41.9023 43.4648 41.9023C43.4648 35.8695 43.4648 29.8367 43.4648 23.6211Z" fill="#4A90E2"/>
<path d="M18.0742 10.4179C18.0742 24.7458 18.0742 39.0737 18.0742 53.8359C12.5663 53.8359 12.5663 53.8359 11.2663 52.7091C10.0912 51.3327 9.91864 50.3007 9.9135 48.5308C9.91205 48.2312 9.9106 47.9315 9.9091 47.6227C9.90882 47.2961 9.90854 46.9695 9.90824 46.633C9.90707 46.2838 9.90579 45.9346 9.90442 45.5854C9.9011 44.6385 9.89946 43.6915 9.89833 42.7446C9.89758 42.1522 9.89654 41.5598 9.89541 40.9675C9.89194 39.1119 9.88948 37.2564 9.8885 35.4009C9.88736 33.2629 9.88291 31.1251 9.87555 28.9872C9.87005 27.3319 9.8675 25.6767 9.86716 24.0214C9.8669 23.0341 9.86541 22.0468 9.86086 21.0594C9.85666 20.1299 9.85614 19.2005 9.85836 18.271C9.85864 17.7702 9.85517 17.2694 9.85156 16.7687C9.86953 12.9243 9.86953 12.9243 11.0616 11.5316C13.0948 9.72051 15.2931 10.4179 18.0742 10.4179Z" fill="#4A90E2"/>
<path d="M105.926 10.418C111.438 10.418 111.438 10.418 112.691 11.5605C113.607 12.7366 113.828 13.481 113.834 14.9501C113.836 15.2601 113.838 15.5702 113.84 15.8896C113.84 16.2337 113.841 16.5779 113.842 16.922C113.843 17.2841 113.845 17.6461 113.847 18.0081C113.852 19.1977 113.855 20.3873 113.857 21.577C113.858 21.9868 113.859 22.3966 113.861 22.8065C113.865 24.7324 113.869 26.6583 113.871 28.5842C113.874 30.8055 113.88 33.0267 113.891 35.248C113.898 36.9659 113.902 38.6839 113.903 40.4019C113.903 41.4274 113.906 42.4529 113.912 43.4784C113.918 44.444 113.919 45.4094 113.916 46.375C113.916 46.7283 113.918 47.0816 113.921 47.4349C113.94 49.4199 113.893 50.8866 112.781 52.5664C110.592 54.3453 108.982 53.8359 105.926 53.8359C105.926 39.508 105.926 25.1801 105.926 10.418Z" fill="#4A90E2"/>
<path d="M117.605 22.3516C121.107 22.3516 121.107 22.3516 122.176 23.3672C123.465 24.7995 123.339 26.2353 123.326 28.0962C123.327 28.406 123.328 28.7159 123.329 29.0351C123.33 29.689 123.328 30.3429 123.324 30.9968C123.318 31.9965 123.324 32.9958 123.33 33.9955C123.33 34.6316 123.328 35.2677 123.326 35.9038C123.328 36.2022 123.33 36.5006 123.333 36.808C123.314 38.413 123.267 39.4199 122.176 40.6328C120.667 42.0659 119.996 41.6484 117.605 41.6484C117.605 35.2805 117.605 28.9125 117.605 22.3516Z" fill="#4A90E2"/>
<path d="M6.39441 22.3515C6.39441 28.7195 6.39441 35.0874 6.39441 41.6484C2.89318 41.6484 2.89318 41.6484 1.8241 40.6327C0.535285 39.2005 0.660766 37.7646 0.673588 35.9037C0.67213 35.439 0.67213 35.439 0.670643 34.9649C0.669954 34.311 0.671819 33.657 0.676067 33.0032C0.681504 32.0034 0.676116 31.0041 0.669621 30.0044C0.670292 29.3683 0.671593 28.7322 0.673588 28.0961C0.671532 27.7977 0.669476 27.4994 0.667358 27.192C0.685733 25.5869 0.732711 24.58 1.8241 23.3671C3.33259 21.9341 4.00421 22.3515 6.39441 22.3515Z" fill="#4A90E2"/>
</svg>
