<svg width="124" height="62" viewBox="0 0 124 62" fill="none" xmlns="http://www.w3.org/2000/svg">
<path d="M27.1727 0.0450666C27.4287 0.043982 27.6846 0.0428974 27.9484 0.0417799C28.489 0.0403287 29.0296 0.0401979 29.5702 0.0412972C30.3943 0.0420959 31.2181 0.0361597 32.0422 0.0297418C32.5685 0.0291664 33.0949 0.0289885 33.6212 0.0292475C33.8662 0.0269165 34.0736 0.017473 34.3635 0.0221838C36.4817 0.0566103 39.6707 1.13 39.6707 1.13C39.6707 1.13 39.6707 15.6812 39.6707 22.9006C54.408 22.9006 69.1454 22.9006 84.3293 22.9006C84.3293 16.3022 84.3293 9.70375 84.3293 2.90535C85.8789 0.613125 85.8789 0.613125 87.1182 0.223854C87.7083 0.113228 88.2564 0.0836674 88.8571 0.0763957C89.0919 0.073147 89.3267 0.0698984 89.5686 0.0665513C89.8208 0.0646816 90.0729 0.0628119 90.3327 0.0608856C90.7248 0.0578211 90.7248 0.0578211 91.1249 0.0546947C91.678 0.0511965 92.2312 0.0484804 92.7843 0.0464878C93.3484 0.0435723 93.9124 0.0383963 94.4764 0.0309159C95.2928 0.0200881 96.1091 0.016018 96.9256 0.0134284C97.1756 0.00899705 97.4257 0.00456567 97.6833 0C99.6141 0.00600614 101.01 0.40314 102.42 1.73672C103.036 3.18645 102.915 4.6112 102.873 6.16408C102.868 6.48317 102.864 6.80226 102.859 7.13102C102.847 7.91624 102.83 8.70106 102.809 9.48608C103.056 9.4821 103.303 9.47813 103.558 9.47403C104.481 9.46021 105.405 9.45154 106.329 9.44437C106.727 9.44057 107.126 9.4354 107.524 9.4288C108.1 9.41951 108.675 9.41526 109.25 9.41193C109.426 9.40801 109.602 9.40409 109.783 9.40005C111.332 9.39953 112.541 9.73344 113.669 10.8149C114.543 12.2196 114.678 13.6057 114.665 15.2274C114.664 15.4933 114.664 15.4933 114.663 15.7646C114.66 16.3241 114.654 16.8836 114.647 17.4431C114.644 17.8252 114.642 18.2073 114.64 18.5895C114.634 19.5203 114.626 20.4512 114.615 21.382C114.809 21.3767 115.003 21.3714 115.203 21.3659C116.087 21.3448 116.971 21.3317 117.855 21.3187C118.161 21.3103 118.466 21.3018 118.781 21.293C121.652 21.2614 121.652 21.2614 122.828 22.3944C124.13 23.8239 124.004 25.2525 123.991 27.1085C123.992 27.4174 123.993 27.7262 123.994 28.0444C123.995 28.6963 123.993 29.3481 123.988 29.9999C123.983 30.9965 123.988 31.9927 123.995 32.9892C123.994 33.6233 123.993 34.2574 123.991 34.8915C123.993 35.1889 123.995 35.4864 123.997 35.7928C123.973 37.8501 123.706 38.7486 122.216 40.2027C120.753 40.8574 119.312 40.7236 117.727 40.6813C117.403 40.6767 117.08 40.6721 116.746 40.6674C115.95 40.6555 115.154 40.6389 114.358 40.618C114.362 40.8784 114.366 41.1388 114.37 41.4071C114.384 42.3778 114.393 43.3486 114.401 44.3194C114.404 44.7387 114.41 45.158 114.416 45.5773C114.426 46.1817 114.43 46.786 114.433 47.3905C114.437 47.5765 114.441 47.7624 114.446 47.954C114.446 49.3356 114.158 50.3788 113.203 51.4115C111.89 52.4203 110.968 52.5503 109.35 52.5386C109.164 52.5383 108.977 52.5379 108.784 52.5376C108.188 52.5361 107.592 52.533 106.995 52.5297C106.591 52.5285 106.186 52.5273 105.782 52.5263C104.791 52.5235 103.8 52.5191 102.809 52.5139C102.813 52.6797 102.817 52.8454 102.821 53.0162C102.837 53.7768 102.847 54.5374 102.857 55.2981C102.866 55.6891 102.866 55.6891 102.876 56.088C102.892 57.7015 102.752 58.8998 102.039 60.3602C100.683 61.6971 99.3838 61.9367 97.5336 61.9556C97.282 61.9554 97.0304 61.9552 96.7712 61.9549C96.5095 61.956 96.2478 61.9571 95.9782 61.9582C95.4255 61.9597 94.8728 61.9598 94.3201 61.9587C93.4775 61.9579 92.635 61.9638 91.7924 61.9703C91.2544 61.9708 90.7163 61.971 90.1783 61.9708C89.9277 61.9731 89.6771 61.9754 89.419 61.9778C87.7945 61.967 84.3293 60.3602 84.3293 60.3602C84.3293 60.3602 84.0726 47.3349 84.0726 40.618C69.42 40.618 54.7674 40.618 39.6707 40.618C39.6707 46.7153 39.6707 52.8126 39.6707 59.0947C38.1211 61.3869 38.1211 61.3869 36.8819 61.7761C36.2917 61.8868 35.7436 61.9163 35.1429 61.9236C34.7907 61.9285 34.7907 61.9285 34.4313 61.9334C34.1792 61.9353 33.9271 61.9372 33.6673 61.9391C33.2752 61.9422 33.2752 61.9422 32.8751 61.9453C32.322 61.9488 31.7688 61.9515 31.2157 61.9535C30.6516 61.9564 30.0876 61.9616 29.5236 61.9691C28.7072 61.9799 27.8909 61.984 27.0744 61.9866C26.8244 61.991 26.5743 61.9954 26.3167 62C24.3859 61.994 22.9903 61.5969 21.5803 60.2633C20.9644 58.8135 21.0845 57.3888 21.1272 55.8359C21.1318 55.5168 21.1364 55.1977 21.1412 54.869C21.1533 54.0838 21.1701 53.2989 21.1913 52.5139C20.9455 52.5192 20.6997 52.5245 20.4464 52.53C19.5262 52.5484 18.6059 52.56 17.6855 52.5695C17.2887 52.5746 16.8919 52.5815 16.4952 52.5903C12.3709 52.6796 12.3709 52.6796 10.6684 51.5015C9.40932 50.0052 9.35237 48.7138 9.36001 46.822C9.36037 46.644 9.36074 46.4661 9.36111 46.2827C9.36254 45.718 9.36576 45.1533 9.36903 44.5886C9.37032 44.2041 9.37149 43.8197 9.37254 43.4353C9.37536 42.4962 9.37979 41.5571 9.38507 40.618C9.19099 40.6233 8.99691 40.6286 8.79694 40.6341C7.91292 40.6552 7.02895 40.6683 6.14476 40.6813C5.83939 40.6897 5.53402 40.6982 5.21939 40.707C2.34759 40.7386 2.34759 40.7386 1.17201 39.6056C-0.129542 38.1761 -0.00393883 36.7474 0.00902858 34.8915C0.00755527 34.4282 0.00755527 34.4282 0.0060522 33.9556C0.00535477 33.3037 0.00724082 32.6519 0.011535 32.0001C0.01703 31.0035 0.0115837 30.0073 0.0050183 29.0108C0.00569672 28.3767 0.0070121 27.7426 0.00902858 27.1085C0.00695044 26.8111 0.0048723 26.5136 0.00273118 26.2072C0.0266144 24.1499 0.294407 23.2514 1.78358 21.7973C3.24729 21.1426 4.68787 21.2764 6.27309 21.3187C6.59666 21.3233 6.92023 21.3279 7.25361 21.3326C8.04985 21.3445 8.84569 21.3611 9.64173 21.382C9.6377 21.1216 9.63367 20.8612 9.62951 20.5929C9.61552 19.6222 9.60672 18.6514 9.59943 17.6806C9.59557 17.2613 9.59033 16.842 9.58364 16.4227C9.57425 15.8183 9.56993 15.214 9.56654 14.6095C9.56256 14.4235 9.55859 14.2376 9.5545 14.046C9.55404 12.6644 9.84153 11.6212 10.7967 10.5885C12.1104 9.57969 13.0322 9.44971 14.6496 9.46136C14.8365 9.46172 15.0234 9.46208 15.216 9.46245C15.8122 9.46386 16.4084 9.46704 17.0046 9.47026C17.4091 9.47153 17.8137 9.47268 18.2182 9.47372C19.2093 9.47651 20.2003 9.48088 21.1913 9.48608C21.1873 9.32034 21.1833 9.15459 21.1791 8.98382C21.163 8.22321 21.1531 7.46264 21.1432 6.70192C21.1368 6.44124 21.1303 6.18055 21.1237 5.91196C21.108 4.29851 21.2481 3.10023 21.9613 1.63983C23.5201 0.102594 25.0809 0.0431049 27.1727 0.0450666ZM25.2979 4.17088C25.2979 21.8781 25.2979 39.5853 25.2979 57.8291C28.7705 57.8291 32.243 57.8291 35.8209 57.8291C35.8209 40.1219 35.8209 22.4147 35.8209 4.17088C32.3483 4.17088 28.8757 4.17088 25.2979 4.17088ZM88.1791 4.17088C88.1791 21.8781 88.1791 39.5853 88.1791 57.8291C91.6517 57.8291 95.1243 57.8291 98.7021 57.8291C98.7021 40.1219 98.7021 22.4147 98.7021 4.17088C95.2295 4.17088 91.757 4.17088 88.1791 4.17088ZM13.7483 13.5358C13.7483 25.1457 13.7483 36.7556 13.7483 48.7173C16.2045 48.7173 18.6607 48.7173 21.1913 48.7173C21.1913 37.1074 21.1913 25.4975 21.1913 13.5358C18.7351 13.5358 16.2789 13.5358 13.7483 13.5358ZM102.809 13.5358C102.809 25.1457 102.809 36.7556 102.809 48.7173C105.265 48.7173 107.721 48.7173 110.252 48.7173C110.252 37.1074 110.252 25.4975 110.252 13.5358C107.796 13.5358 105.339 13.5358 102.809 13.5358ZM4.25191 25.4317C4.25191 29.1068 4.25191 32.7819 4.25191 36.5683C5.94585 36.5683 7.6398 36.5683 9.38507 36.5683C9.38507 32.8932 9.38507 29.2181 9.38507 25.4317C7.69113 25.4317 5.99718 25.4317 4.25191 25.4317ZM114.615 25.4317C114.615 29.1068 114.615 32.7819 114.615 36.5683C116.309 36.5683 118.003 36.5683 119.748 36.5683C119.748 32.8932 119.748 29.2181 119.748 25.4317C118.054 25.4317 116.36 25.4317 114.615 25.4317ZM39.6707 26.6972C39.6707 30.0382 39.6707 33.3792 39.6707 36.8214C54.3233 36.8214 68.976 36.8214 84.0726 36.8214C84.0726 33.4804 84.0726 30.1394 84.0726 26.6972C69.42 26.6972 54.7674 26.6972 39.6707 26.6972Z" fill="#4A90E2"/>
</svg>
